<?xml version="1.0" encoding="UTF-8" standalone="no"?>
<svg
   xmlns:dc="http://purl.org/dc/elements/1.1/"
   xmlns:cc="http://creativecommons.org/ns#"
   xmlns:rdf="http://www.w3.org/1999/02/22-rdf-syntax-ns#"
   xmlns:svg="http://www.w3.org/2000/svg"
   xmlns="http://www.w3.org/2000/svg"
   viewBox="0 0 1073.0667 1073.0667"
   height="1073.0667"
   width="1073.0667"
   xml:space="preserve"
   id="svg2"
   version="1.1"><metadata
     id="metadata8"><rdf:RDF><cc:Work
         rdf:about=""><dc:format>image/svg+xml</dc:format><dc:type
           rdf:resource="http://purl.org/dc/dcmitype/StillImage" /></cc:Work></rdf:RDF></metadata><defs
     id="defs6" /><g
     transform="matrix(1.3333333,0,0,-1.3333333,0,1073.0667)"
     id="g10"><g
       transform="scale(0.1)"
       id="g12"><path
         id="path14"
         style="fill:none;stroke:#215b45;stroke-width:50;stroke-linecap:butt;stroke-linejoin:miter;stroke-miterlimit:10;stroke-dasharray:none;stroke-opacity:1"
         d="m 7290.65,4023.97 c 0,-1804.13 -1462.54,-3266.669 -3266.67,-3266.669 -1804.14,0 -3266.675,1462.539 -3266.675,3266.669 0,1804.14 1462.535,3266.67 3266.675,3266.67 1804.13,0 3266.67,-1462.53 3266.67,-3266.67 z" /><path
         id="path16"
         style="fill:none;stroke:#215b45;stroke-width:50;stroke-linecap:butt;stroke-linejoin:miter;stroke-miterlimit:10;stroke-dasharray:none;stroke-opacity:1"
         d="M 8022.95,4023.97 C 8022.95,1815.4 6232.55,25 4023.98,25 1815.4,25 25,1815.4 25,4023.97 c 0,2208.58 1790.4,3998.98 3998.98,3998.98 2208.57,0 3998.97,-1790.4 3998.97,-3998.98 z" /><path
         id="path18"
         style="fill:#27704c;fill-opacity:1;fill-rule:nonzero;stroke:none"
         d="m 1462.58,5406.34 46.77,-25.12 -43.34,-80.7 -98.49,52.9 c -5.01,2.69 -10.26,4.29 -15.74,4.79 -5.48,0.5 -10.79,0 -15.93,-1.49 -5.13,-1.49 -9.85,-3.92 -14.18,-7.27 -4.31,-3.35 -7.83,-7.53 -10.52,-12.54 -2.69,-5.02 -4.24,-10.25 -4.65,-15.7 -0.4,-5.46 0.23,-10.72 1.92,-15.8 1.68,-5.08 4.33,-9.82 7.96,-14.21 3.63,-4.39 8.07,-7.99 13.33,-10.82 l 37.05,-19.89 c 3.79,-2.04 7.71,-2.45 11.75,-1.24 4.04,1.22 7.11,3.79 9.21,7.7 l 14.78,27.51 46.76,-25.12 -14.78,-27.51 c -4.46,-8.32 -10.25,-15.29 -17.37,-20.91 -7.12,-5.64 -14.88,-9.74 -23.28,-12.32 -8.39,-2.57 -17.11,-3.49 -26.15,-2.72 -9.05,0.76 -17.72,3.37 -26.04,7.84 l -37.05,19.9 c -11.74,6.3 -21.58,14.38 -29.51,24.24 -7.95,9.85 -13.71,20.6 -17.32,32.22 -3.6,11.63 -4.92,23.68 -3.97,36.16 0.96,12.49 4.48,24.41 10.6,35.78 6.1,11.37 14.15,20.92 24.12,28.64 9.97,7.72 20.8,13.28 32.48,16.7 11.68,3.42 23.76,4.57 36.24,3.46 12.48,-1.12 24.31,-4.75 35.49,-10.91 l 51.54,-27.69 z m -237.56,-17.74 c -3.31,1.78 -6.04,4.08 -8.23,6.9 -2.18,2.83 -3.77,5.89 -4.76,9.18 -0.99,3.28 -1.36,6.71 -1.1,10.28 0.26,3.55 1.28,6.99 3.05,10.29 1.78,3.31 4.06,6.01 6.85,8.14 2.79,2.12 5.84,3.68 9.13,4.67 3.28,0.99 6.69,1.32 10.23,1 3.52,-0.32 6.94,-1.36 10.24,-3.14 3.3,-1.77 6.06,-4.04 8.28,-6.81 2.22,-2.76 3.82,-5.79 4.81,-9.08 0.99,-3.29 1.34,-6.67 1.06,-10.14 -0.29,-3.47 -1.32,-6.85 -3.1,-10.15 -1.77,-3.3 -4.04,-6.07 -6.81,-8.28 -2.76,-2.21 -5.79,-3.82 -9.08,-4.81 -3.28,-0.99 -6.71,-1.35 -10.28,-1.1 -3.55,0.26 -6.99,1.28 -10.29,3.05 z m -30.24,-56.3 c -3.31,1.77 -6.06,4.04 -8.28,6.81 -2.22,2.76 -3.82,5.79 -4.81,9.08 -0.99,3.29 -1.36,6.71 -1.1,10.28 0.26,3.56 1.28,6.99 3.05,10.3 1.78,3.3 4.07,6.04 6.9,8.22 2.83,2.18 5.89,3.77 9.17,4.76 3.29,0.99 6.7,1.32 10.24,1.01 3.52,-0.32 6.94,-1.37 10.24,-3.14 3.3,-1.77 6.06,-4.05 8.28,-6.81 2.21,-2.77 3.82,-5.8 4.81,-9.08 0.99,-3.29 1.32,-6.7 1,-10.23 -0.32,-3.53 -1.37,-6.95 -3.14,-10.25 -1.77,-3.3 -4.04,-6.06 -6.81,-8.28 -2.76,-2.21 -5.79,-3.82 -9.08,-4.8 -3.28,-1 -6.69,-1.33 -10.23,-1.01 -3.52,0.32 -6.94,1.37 -10.24,3.14" /><path
         id="path20"
         style="fill:#27704c;fill-opacity:1;fill-rule:nonzero;stroke:none"
         d="m 1455.3,5389.38 52.56,86.45 45.36,-27.58 -52.56,-86.45 -45.36,27.58" /><path
         id="path22"
         style="fill:#27704c;fill-opacity:1;fill-rule:nonzero;stroke:none"
         d="m 1498.37,5460.7 54.92,84.97 44.58,-28.82 -54.92,-84.97 -44.58,28.82" /><path
         id="path24"
         style="fill:#27704c;fill-opacity:1;fill-rule:nonzero;stroke:none"
         d="m 1483.77,5715 126.08,-88.17 22.19,31.73 43.51,-30.42 -89.48,-127.95 -43.51,30.43 36.87,52.71 -126.08,88.17 z m -68.1,43.56 -9.54,-13.64 0.11,0.17 c -2.59,-3.95 -3.39,-7.57 -2.43,-10.88 0.97,-3.3 2.76,-5.86 5.36,-7.68 1.69,-1.18 3.45,-2.16 5.27,-2.92 1.82,-0.77 3.57,-1.32 5.27,-1.66 1.7,-0.34 3.24,-0.36 4.63,-0.05 1.38,0.29 2.39,0.9 3.03,1.81 l 16.94,24.22 16.21,-11.33 -36.75,-52.54 -16.2,11.33 6.01,8.24 c -5.82,1.36 -11,3.64 -15.55,6.82 -3.42,2.38 -6.38,5.17 -8.89,8.37 -2.5,3.19 -4.28,6.71 -5.31,10.57 -1.02,3.85 -1.12,8.03 -0.27,12.51 0.86,4.49 2.94,9.21 6.24,14.18 l 9.67,13.82 16.2,-11.34" /><path
         id="path26"
         style="fill:#27704c;fill-opacity:1;fill-rule:nonzero;stroke:none"
         d="m 1621.84,5643.67 60.98,80.74 42.36,-31.99 -60.98,-80.75 -42.36,32" /><path
         id="path28"
         style="fill:#27704c;fill-opacity:1;fill-rule:nonzero;stroke:none"
         d="m 1789.76,5696.78 c -2.91,2.36 -5.19,5.12 -6.84,8.25 -1.66,3.14 -2.66,6.41 -3,9.83 -0.36,3.41 -0.04,6.83 0.94,10.23 0.98,3.4 2.66,6.56 5.03,9.47 2.37,2.9 5.11,5.18 8.25,6.84 3.13,1.65 6.41,2.65 9.83,3 3.41,0.35 6.82,0.03 10.23,-0.95 3.41,-0.98 6.56,-2.66 9.47,-5.02 2.91,-2.37 5.18,-5.12 6.84,-8.26 1.65,-3.13 2.65,-6.41 3,-9.83 0.35,-3.41 0.03,-6.83 -0.95,-10.23 -0.98,-3.41 -2.66,-6.56 -5.03,-9.47 -2.36,-2.9 -5.11,-5.19 -8.24,-6.83 -3.14,-1.66 -6.42,-2.66 -9.84,-3.01 -3.41,-0.35 -6.82,-0.03 -10.23,0.95 -3.4,0.99 -6.56,2.66 -9.46,5.03 z m -40.5,-49.72 c -2.9,2.36 -5.18,5.12 -6.83,8.25 -1.65,3.14 -2.66,6.41 -3.01,9.83 -0.35,3.42 -0.03,6.83 0.95,10.23 0.99,3.4 2.66,6.56 5.03,9.47 2.36,2.91 5.11,5.18 8.25,6.84 3.13,1.65 6.41,2.65 9.83,3 3.42,0.35 6.85,0.06 10.3,-0.87 3.45,-0.93 6.63,-2.58 9.53,-4.94 2.91,-2.37 5.17,-5.15 6.78,-8.34 1.6,-3.19 2.58,-6.49 2.94,-9.91 0.34,-3.41 0.03,-6.83 -0.96,-10.23 -0.99,-3.41 -2.66,-6.56 -5.02,-9.47 -2.37,-2.9 -5.12,-5.19 -8.25,-6.84 -3.14,-1.65 -6.42,-2.65 -9.83,-3 -3.42,-0.35 -6.84,-0.03 -10.24,0.95 -3.4,0.99 -6.56,2.66 -9.47,5.03 z m -122.59,252.33 119.29,-97.15 24.45,30.03 41.17,-33.53 -98.6,-121.07 -41.16,33.53 40.62,49.87 -119.3,97.15 33.53,41.17" /><path
         id="path30"
         style="fill:#27704c;fill-opacity:1;fill-rule:nonzero;stroke:none"
         d="m 1758.95,5817.9 66.7,76.07 39.92,-35 -66.7,-76.07 -39.92,35" /><path
         id="path32"
         style="fill:#27704c;fill-opacity:1;fill-rule:nonzero;stroke:none"
         d="m 1919.56,5848.16 c -2.72,2.57 -4.77,5.45 -6.14,8.65 -1.37,3.2 -2.1,6.52 -2.2,9.95 -0.11,3.43 0.46,6.81 1.69,10.14 1.23,3.32 3.13,6.35 5.7,9.08 2.57,2.72 5.48,4.79 8.73,6.21 3.25,1.42 6.59,2.18 10.02,2.28 3.43,0.11 6.79,-0.44 10.06,-1.62 3.27,-1.18 6.28,-3.06 9,-5.63 2.73,-2.57 4.8,-5.48 6.22,-8.73 1.42,-3.24 2.18,-6.59 2.28,-10.02 0.1,-3.43 -0.44,-6.84 -1.62,-10.21 -1.17,-3.37 -3.05,-6.42 -5.62,-9.14 -2.57,-2.73 -5.51,-4.78 -8.81,-6.15 -3.3,-1.37 -6.66,-2.11 -10.09,-2.21 -3.44,-0.1 -6.82,0.47 -10.14,1.7 -3.33,1.22 -6.35,3.13 -9.08,5.7 z m -137.72,223.82 111.9,-105.58 26.58,28.16 38.61,-36.43 -107.15,-113.57 -38.62,36.43 44.15,46.8 -111.9,105.58 36.43,38.61" /><path
         id="path34"
         style="fill:#27704c;fill-opacity:1;fill-rule:nonzero;stroke:none"
         d="m 1907.87,5981.13 72.06,71.02 37.27,-37.81 -72.07,-71.02 -37.26,37.81" /><path
         id="path36"
         style="fill:#27704c;fill-opacity:1;fill-rule:nonzero;stroke:none"
         d="m 1879.05,6269.25 154.73,-167.4 28.29,26.14 36.03,-38.98 -95.55,-88.32 -36.03,38.98 28.28,26.14 -154.73,167.41 38.98,36.03" /><path
         id="path38"
         style="fill:#27704c;fill-opacity:1;fill-rule:nonzero;stroke:none"
         d="m 1972.15,6350.81 138.26,-160.89 c 6.16,-7.16 10.6,-15.1 13.33,-23.82 2.74,-8.72 3.75,-17.5 3.03,-26.36 -0.72,-8.85 -3.09,-17.38 -7.1,-25.59 -4.02,-8.21 -9.65,-15.43 -16.92,-21.68 l -19.58,-16.82 -34.6,40.26 19.58,16.83 c 3.47,2.98 5.4,6.65 5.78,11 0.38,4.35 -0.88,8.21 -3.78,11.58 l -138.27,160.89 40.27,34.6" /><path
         id="path40"
         style="fill:#27704c;fill-opacity:1;fill-rule:nonzero;stroke:none"
         d="m 2279.81,6426.79 c -4.97,-3.55 -9.7,-7.74 -14.19,-12.56 -4.48,-4.82 -8.48,-9.98 -11.98,-15.46 -3.51,-5.48 -6.51,-11.08 -9,-16.78 -2.49,-5.71 -4.29,-11.25 -5.39,-16.64 -1.1,-5.39 -1.39,-10.41 -0.87,-15.08 0.52,-4.66 1.98,-8.69 4.4,-12.07 l 29.15,-40.84 95.57,68.23 -33.03,46.25 c -4.67,6.56 -9.42,11.52 -14.23,14.91 -4.8,3.39 -9.54,5.55 -14.21,6.48 -4.67,0.93 -9.25,0.77 -13.74,-0.47 -4.48,-1.24 -8.65,-3.23 -12.48,-5.97 z m -140.34,56.1 58.19,-81.5 c 5.35,13.54 12.41,26.34 21.19,38.41 8.78,12.06 18.81,22.12 30.11,30.19 9.83,7.02 20.1,12.21 30.81,15.61 10.71,3.38 21.61,4.3 32.7,2.75 11.08,-1.55 22.11,-5.96 33.09,-13.21 10.98,-7.26 21.62,-18.11 31.95,-32.57 l 33.02,-46.25 31.35,22.38 30.84,-43.21 -237.54,-169.6 -30.85,43.21 24.4,17.41 -132.46,185.53 43.2,30.85" /><path
         id="path42"
         style="fill:#27704c;fill-opacity:1;fill-rule:nonzero;stroke:none"
         d="m 2428.32,6405.41 85.93,53.42 28.03,-45.09 -85.93,-53.41 -28.03,45.08" /><path
         id="path44"
         style="fill:#27704c;fill-opacity:1;fill-rule:nonzero;stroke:none"
         d="m 2498.76,6449.49 87.36,51.03 26.78,-45.84 -87.36,-51.03 -26.78,45.84" /><path
         id="path46"
         style="fill:#27704c;fill-opacity:1;fill-rule:nonzero;stroke:none"
         d="m 2685.78,6725.82 68.88,-137.57 13.96,6.99 c 4.09,2.05 6.9,5.12 8.42,9.22 1.51,4.1 1.31,8.07 -0.62,11.92 l -61.97,123.79 47.66,23.87 61.97,-123.8 c 4.23,-8.44 6.56,-17.21 7,-26.3 0.44,-9.09 -0.79,-17.82 -3.66,-26.16 -2.89,-8.35 -7.31,-16.04 -13.26,-23.06 -5.96,-7.01 -13.21,-12.66 -21.78,-16.95 l -200.49,-100.37 -23.77,47.47 62.92,31.5 -68.87,137.57 47.28,23.67 68.88,-137.57 28.85,14.45 -68.87,137.57 47.47,23.76" /><path
         id="path48"
         style="fill:#27704c;fill-opacity:1;fill-rule:nonzero;stroke:none"
         d="m 2995.79,6691.5 -21.36,54.47 c -2.03,5.16 -4.94,9.76 -8.76,13.78 -3.81,4.02 -8.16,7.12 -13.04,9.31 -4.88,2.18 -10.1,3.42 -15.65,3.7 -5.55,0.28 -10.98,-0.62 -16.27,-2.69 -5.31,-2.08 -9.84,-5.05 -13.61,-8.92 -3.78,-3.86 -6.67,-8.28 -8.68,-13.24 -2,-4.96 -3.04,-10.29 -3.12,-15.98 -0.08,-5.7 0.97,-11.32 3.15,-16.88 l 15.35,-39.15 c 1.57,-4 4.29,-6.85 8.16,-8.54 3.87,-1.69 7.8,-1.75 11.81,-0.18 z m -72.96,-108.21 62.02,24.32 c 7.37,2.88 13.3,7.15 17.8,12.79 4.5,5.64 7.05,12.24 7.67,19.78 l -57.17,-22.42 c -8.8,-3.44 -17.72,-5.01 -26.79,-4.69 -9.07,0.32 -17.61,2.22 -25.61,5.73 -8.01,3.49 -15.21,8.45 -21.61,14.89 -6.4,6.43 -11.32,14.04 -14.77,22.83 l -15.35,39.15 c -4.86,12.41 -7.13,24.94 -6.79,37.59 0.32,12.65 2.87,24.6 7.63,35.86 4.75,11.26 11.5,21.32 20.25,30.19 8.74,8.87 19.12,15.66 31.14,20.38 12.15,4.76 24.5,6.81 37.06,6.14 12.56,-0.67 24.41,-3.51 35.54,-8.54 11.14,-5.02 21.11,-12 29.9,-20.92 8.79,-8.93 15.49,-19.27 20.11,-31.02 l 21.35,-54.47 35.86,14.06 19.37,-49.42 -37.59,-14.74 c 1.6,-10.56 1.36,-21.08 -0.7,-31.59 -2.08,-10.5 -5.67,-20.33 -10.8,-29.5 -5.13,-9.16 -11.68,-17.36 -19.65,-24.59 -7.98,-7.22 -17.13,-12.86 -27.47,-16.91 l -62.02,-24.33 -19.38,49.43" /><path
         id="path50"
         style="fill:#27704c;fill-opacity:1;fill-rule:nonzero;stroke:none"
         d="m 3064.46,6716.71 96.04,31.83 16.7,-50.39 -96.04,-31.83 -16.7,50.39" /><path
         id="path52"
         style="fill:#27704c;fill-opacity:1;fill-rule:nonzero;stroke:none"
         d="m 3148.39,6954.43 c -1.05,3.6 -1.36,7.15 -0.93,10.67 0.41,3.52 1.45,6.78 3.11,9.8 1.65,3.01 3.84,5.67 6.57,7.98 2.71,2.31 5.88,3.99 9.48,5.03 3.59,1.05 7.16,1.33 10.7,0.84 3.54,-0.49 6.82,-1.56 9.83,-3.21 3.01,-1.66 5.63,-3.85 7.88,-6.6 2.24,-2.74 3.89,-5.91 4.94,-9.51 1.04,-3.6 1.36,-7.16 0.93,-10.68 -0.42,-3.52 -1.45,-6.78 -3.11,-9.79 -1.65,-3.01 -3.85,-5.64 -6.6,-7.88 -2.74,-2.25 -5.91,-3.89 -9.51,-4.94 -3.6,-1.04 -7.15,-1.36 -10.68,-0.93 -3.52,0.41 -6.78,1.45 -9.79,3.11 -3.01,1.65 -5.64,3.85 -7.88,6.59 -2.24,2.74 -3.89,5.92 -4.94,9.52 z m 64.52,-30.23 42.98,-147.73 37.18,10.82 14.83,-50.97 -149.92,-43.62 -14.84,50.97 61.77,17.97 -42.97,147.73 z m -126.09,12.32 c -1.04,3.59 -1.35,7.15 -0.93,10.67 0.42,3.52 1.46,6.78 3.11,9.8 1.65,3 3.84,5.67 6.57,7.97 2.72,2.32 5.88,4 9.48,5.04 3.6,1.05 7.17,1.33 10.71,0.84 3.54,-0.49 6.81,-1.56 9.82,-3.21 3.01,-1.66 5.67,-3.85 7.98,-6.57 2.31,-2.73 3.99,-5.89 5.04,-9.48 1.04,-3.6 1.32,-7.17 0.83,-10.71 -0.48,-3.54 -1.56,-6.82 -3.2,-9.82 -1.66,-3.01 -3.86,-5.64 -6.61,-7.88 -2.74,-2.25 -5.91,-3.9 -9.5,-4.94 -3.6,-1.04 -7.16,-1.36 -10.68,-0.94 -3.52,0.42 -6.79,1.46 -9.8,3.12 -3.01,1.64 -5.63,3.85 -7.88,6.59 -2.24,2.74 -3.89,5.92 -4.94,9.52" /><path
         id="path54"
         style="fill:#27704c;fill-opacity:1;fill-rule:nonzero;stroke:none"
         d="m 3275.79,6782.09 98.13,24.65 12.93,-51.48 -98.12,-24.66 -12.94,51.49" /><path
         id="path56"
         style="fill:#27704c;fill-opacity:1;fill-rule:nonzero;stroke:none"
         d="m 3465.35,6928.64 c -5.45,-1.06 -10.35,-3.15 -14.69,-6.25 -4.34,-3.1 -7.97,-6.85 -10.87,-11.22 -2.89,-4.38 -4.88,-9.26 -5.95,-14.63 -1.09,-5.37 -1.07,-10.91 0.04,-16.64 l 8.13,-41.89 c 1.11,-5.73 3.18,-10.91 6.2,-15.55 3.02,-4.65 6.7,-8.46 11.02,-11.44 4.32,-2.97 9.08,-5.09 14.27,-6.35 5.19,-1.25 10.51,-1.35 15.96,-0.29 5.45,1.05 10.35,3.14 14.7,6.25 4.34,3.09 7.95,6.91 10.83,11.42 2.86,4.52 4.84,9.43 5.93,14.73 1.1,5.3 1.1,10.74 0.02,16.33 l -8.17,42.1 c -1.06,5.45 -3.09,10.46 -6.1,15.04 -3.01,4.58 -6.69,8.42 -11.04,11.54 -4.35,3.11 -9.12,5.3 -14.32,6.55 -5.19,1.25 -10.51,1.35 -15.96,0.3 z m -110.21,-123.82 39.04,7.58 c -0.92,2.51 -1.69,5.04 -2.33,7.61 -0.64,2.56 -1.22,5.2 -1.75,7.93 l -8.13,41.89 c -2.48,12.81 -2.44,25.32 0.13,37.56 2.58,12.24 7.2,23.42 13.85,33.55 6.66,10.12 15.04,18.72 25.12,25.76 10.08,7.04 21.46,11.8 34.13,14.26 12.53,2.43 24.88,2.17 37.05,-0.77 12.16,-2.94 23.23,-7.9 33.21,-14.87 9.98,-6.97 18.44,-15.61 25.39,-25.93 6.95,-10.31 11.63,-21.67 14.03,-34.06 l 8.17,-42.11 c 0.69,-2.83 1.21,-5.49 1.55,-7.97 0.34,-2.47 0.48,-5.06 0.45,-7.76 l 38.82,7.54 10.12,-52.12 -66.43,-12.89 c -6.72,-9.78 -14.96,-17.96 -24.71,-24.51 -9.76,-6.56 -20.83,-11.04 -33.23,-13.45 -25.21,-4.89 -47.86,-0.38 -67.95,13.54 l -66.42,-12.89 -10.11,52.11" /><path
         id="path58"
         style="fill:#27704c;fill-opacity:1;fill-rule:nonzero;stroke:none"
         d="m 3660.11,7088.64 28.16,-210.26 c 1.25,-9.36 0.65,-18.43 -1.82,-27.23 -2.46,-8.81 -6.41,-16.72 -11.83,-23.75 -5.43,-7.03 -12.07,-12.89 -19.91,-17.58 -7.85,-4.69 -16.52,-7.67 -26.01,-8.94 l -25.58,-3.43 -7.05,52.62 25.58,3.42 c 4.55,0.62 8.16,2.64 10.85,6.08 2.69,3.44 3.74,7.36 3.15,11.77 l -28.16,210.25 52.62,7.05" /><path
         id="path60"
         style="fill:#27704c;fill-opacity:1;fill-rule:nonzero;stroke:none"
         d="m 3763.07,7099.68 27.93,-279.66 -52.82,-5.27 -27.93,279.66 52.82,5.27" /><path
         id="path62"
         style="fill:#27704c;fill-opacity:1;fill-rule:nonzero;stroke:none"
         d="m 4141.24,7085.25 c 0.06,3.74 0.81,7.23 2.25,10.48 1.44,3.23 3.39,6.05 5.86,8.43 2.47,2.39 5.35,4.29 8.63,5.69 3.28,1.41 6.8,2.08 10.55,2.03 3.75,-0.07 7.24,-0.86 10.47,-2.36 3.24,-1.52 6.05,-3.5 8.44,-5.97 2.39,-2.47 4.29,-5.35 5.7,-8.63 1.4,-3.29 2.07,-6.8 2.01,-10.55 -0.06,-3.74 -0.85,-7.24 -2.36,-10.48 -1.51,-3.23 -3.5,-6.05 -5.97,-8.44 -2.46,-2.38 -5.34,-4.25 -8.62,-5.58 -3.29,-1.33 -6.8,-1.97 -10.55,-1.91 -3.74,0.06 -7.24,0.81 -10.47,2.25 -3.24,1.44 -6.06,3.4 -8.45,5.86 -2.39,2.47 -4.25,5.35 -5.58,8.63 -1.34,3.28 -1.97,6.8 -1.91,10.55 z m -34.9,-200.36 116.98,-1.9 0.93,56.83 c 0.13,8.04 -0.74,14.86 -2.59,20.45 -1.85,5.58 -4.34,10.12 -7.48,13.65 -3.14,3.52 -6.84,6.08 -11.12,7.67 -4.28,1.6 -8.78,2.44 -13.49,2.51 -9.16,0.15 -18.59,-1.15 -28.28,-3.91 -9.69,-2.76 -18.53,-6.46 -26.52,-11.12 -7.98,-4.66 -14.56,-9.97 -19.73,-15.92 -5.16,-5.96 -7.79,-12.06 -7.89,-18.31 z m 2.49,153.83 -0.42,-26.23 c 6.17,3.78 12.64,7.25 19.42,10.4 6.79,3.16 13.7,5.82 20.75,8 7.04,2.17 14.08,3.83 21.11,4.97 7.02,1.13 13.94,1.64 20.74,1.53 12.08,-0.19 23.42,-2.12 34.06,-5.75 10.62,-3.65 19.9,-9.38 27.83,-17.21 7.91,-7.84 14.14,-17.93 18.66,-30.29 4.52,-12.36 6.63,-27.42 6.34,-45.18 l -0.92,-56.83 38.51,-0.62 -0.86,-53.08 -210.65,3.41 c -2.7,-12.3 -7.49,-23.02 -14.37,-32.14 -6.88,-9.12 -15.05,-16.69 -24.52,-22.71 -9.47,-6.03 -19.88,-10.47 -31.24,-13.35 -11.36,-2.86 -22.94,-4.2 -34.73,-4.01 -13.19,0.21 -26.1,2.37 -38.73,6.46 -12.64,4.09 -23.85,10.14 -33.64,18.13 -9.8,8.01 -17.66,17.92 -23.57,29.74 -5.92,11.83 -8.75,25.65 -8.49,41.47 l 2.46,151.75 53.29,-0.87 -2.46,-151.74 c -0.11,-6.8 1.32,-12.8 4.29,-17.98 2.97,-5.18 6.89,-9.51 11.76,-13 4.87,-3.47 10.44,-6.13 16.73,-7.97 6.29,-1.83 12.7,-2.81 19.22,-2.91 6.52,-0.11 12.95,0.66 19.3,2.29 6.33,1.63 12,4.11 16.98,7.43 4.98,3.32 9,7.52 12.07,12.6 3.07,5.09 4.66,11.03 4.77,17.83 l 3.03,186.72 53.28,-0.86" /><path
         id="path64"
         style="fill:#27704c;fill-opacity:1;fill-rule:nonzero;stroke:none"
         d="m 4295.78,6876.85 100.74,-9.38 -4.92,-52.86 -100.75,9.38 4.93,52.86" /><path
         id="path66"
         style="fill:#27704c;fill-opacity:1;fill-rule:nonzero;stroke:none"
         d="m 4428.9,6762.03 c 0.48,3.72 1.62,7.11 3.42,10.16 1.8,3.06 4.05,5.64 6.78,7.72 2.72,2.1 5.79,3.63 9.2,4.58 3.41,0.96 6.98,1.19 10.69,0.71 3.72,-0.49 7.11,-1.63 10.16,-3.42 3.06,-1.8 5.63,-4.06 7.73,-6.78 2.09,-2.72 3.62,-5.79 4.57,-9.21 0.96,-3.41 1.2,-6.97 0.71,-10.69 -0.48,-3.71 -1.63,-7.1 -3.42,-10.16 -1.8,-3.04 -4.06,-5.62 -6.78,-7.72 -2.72,-2.09 -5.79,-3.62 -9.2,-4.58 -3.42,-0.95 -6.98,-1.18 -10.69,-0.7 -3.72,0.48 -7.11,1.62 -10.16,3.42 -3.06,1.8 -5.63,4.06 -7.73,6.77 -2.09,2.73 -3.62,5.8 -4.57,9.21 -0.96,3.41 -1.2,6.98 -0.71,10.69 z m 86.5,245.29 -19.85,-152.56 38.4,-5 -6.85,-52.64 -154.83,20.15 6.85,52.64 63.79,-8.3 19.85,152.56 z m -150.08,-237.01 c 0.48,3.71 1.62,7.1 3.41,10.15 1.8,3.06 4.06,5.64 6.78,7.73 2.73,2.1 5.79,3.62 9.2,4.58 3.42,0.95 6.98,1.18 10.7,0.7 3.72,-0.48 7.1,-1.62 10.16,-3.42 3.05,-1.79 5.63,-4.06 7.72,-6.78 2.1,-2.71 3.66,-5.79 4.69,-9.21 1.02,-3.42 1.29,-6.99 0.8,-10.71 -0.48,-3.72 -1.66,-7.1 -3.52,-10.15 -1.86,-3.04 -4.16,-5.61 -6.88,-7.7 -2.72,-2.1 -5.79,-3.62 -9.2,-4.58 -3.42,-0.95 -6.98,-1.19 -10.7,-0.71 -3.72,0.48 -7.1,1.62 -10.16,3.42 -3.05,1.8 -5.63,4.06 -7.72,6.78 -2.09,2.72 -3.62,5.79 -4.58,9.21 -0.95,3.41 -1.19,6.97 -0.7,10.69" /><path
         id="path68"
         style="fill:#27704c;fill-opacity:1;fill-rule:nonzero;stroke:none"
         d="m 4515.86,6851.94 99.79,-16.73 -8.79,-52.36 -99.78,16.74 8.78,52.35" /><path
         id="path70"
         style="fill:#27704c;fill-opacity:1;fill-rule:nonzero;stroke:none"
         d="m 4640.3,6728.27 c 0.75,3.67 2.13,6.93 4.12,9.78 2,2.85 4.44,5.22 7.3,7.11 2.87,1.9 6.04,3.19 9.51,3.9 3.47,0.71 7.05,0.68 10.72,-0.07 3.67,-0.75 6.96,-2.13 9.89,-4.14 2.91,-2.01 5.32,-4.45 7.21,-7.32 1.89,-2.86 3.2,-6 3.92,-9.41 0.72,-3.4 0.71,-6.94 -0.05,-10.61 -0.75,-3.67 -2.13,-6.96 -4.14,-9.89 -2.02,-2.91 -4.46,-5.32 -7.32,-7.21 -2.86,-1.89 -6.05,-3.23 -9.53,-4 -3.49,-0.77 -7.07,-0.79 -10.74,-0.04 -3.67,0.75 -6.96,2.17 -9.86,4.25 -2.91,2.08 -5.3,4.56 -7.19,7.42 -1.9,2.87 -3.2,6.04 -3.9,9.51 -0.71,3.47 -0.69,7.04 0.06,10.72 z m 103.65,237.83 -27.6,-135.02 c -1.92,-9.39 -5.49,-17.83 -10.7,-25.33 -5.22,-7.51 -11.51,-13.7 -18.88,-18.56 -7.37,-4.87 -15.53,-8.23 -24.48,-10.09 -8.95,-1.85 -18.05,-1.83 -27.3,0.06 l -47.52,9.71 10.63,52.01 47.53,-9.71 c 4.21,-0.86 8.16,-0.08 11.85,2.36 3.68,2.43 5.97,5.82 6.86,10.18 l 27.6,135.02 52.01,-10.63" /><path
         id="path72"
         style="fill:#27704c;fill-opacity:1;fill-rule:nonzero;stroke:none"
         d="m 4896.23,7000.96 -16.07,4.36 0.2,-0.05 c -4.6,1.1 -8.28,0.63 -11.05,-1.4 -2.79,-2.03 -4.59,-4.57 -5.42,-7.64 -0.54,-1.99 -0.87,-3.97 -0.97,-5.94 -0.1,-1.98 -0.03,-3.82 0.23,-5.53 0.25,-1.71 0.75,-3.17 1.51,-4.37 0.75,-1.2 1.66,-1.95 2.73,-2.24 l 28.54,-7.74 -5.18,-19.09 -61.89,16.79 5.18,19.09 9.85,-2.67 c -0.7,5.91 -0.33,11.54 1.12,16.87 1.09,4 2.71,7.72 4.86,11.15 2.15,3.42 4.86,6.27 8.14,8.53 3.27,2.26 7.16,3.75 11.67,4.46 4.51,0.71 9.65,0.35 15.45,-1.08 l 16.28,-4.41 z m -15.9,-68.17 -40.27,-148.48 48.82,-13.24 c 4.29,-1.16 8.35,-0.65 12.18,1.55 3.83,2.2 6.32,5.44 7.49,9.72 l 55.48,204.54 51.03,-13.84 -55.48,-204.54 c -2.5,-9.24 -6.6,-17.44 -12.28,-24.6 -5.68,-7.16 -12.35,-12.93 -20.02,-17.33 -7.66,-4.39 -15.98,-7.24 -24.96,-8.54 -8.98,-1.31 -18.09,-0.71 -27.34,1.8 l -134.21,36.41 13.89,51.23 34.36,-9.32 40.28,148.49 51.03,-13.85" /><path
         id="path74"
         style="fill:#27704c;fill-opacity:1;fill-rule:nonzero;stroke:none"
         d="m 5118.39,6937.84 -89.14,-266.54 -50.34,16.84 89.13,266.54 50.35,-16.84" /><path
         id="path76"
         style="fill:#27704c;fill-opacity:1;fill-rule:nonzero;stroke:none"
         d="m 5290.73,6793 -57.73,-142.6 35.71,-14.45 -19.92,-49.21 -39.37,15.94 c -3.68,-4.65 -8.38,-9.42 -14.09,-14.29 -5.72,-4.87 -12.82,-9.37 -21.31,-13.5 -8.47,-4.12 -18.5,-7.52 -30.05,-10.18 -11.56,-2.66 -24.93,-4.06 -40.1,-4.2 l -0.57,53 c 7.4,0.15 14.1,0.7 20.1,1.64 5.99,0.94 11.31,2.15 15.96,3.65 4.65,1.49 8.69,3.14 12.12,4.97 3.44,1.83 6.44,3.72 9.04,5.66 5.86,4.52 10.06,9.55 12.62,15.11 l 68.19,168.46 49.4,-20" /><path
         id="path78"
         style="fill:#27704c;fill-opacity:1;fill-rule:nonzero;stroke:none"
         d="m 5251.75,6642.6 92.3,-41.44 -21.74,-48.42 -92.3,41.43 21.74,48.43" /><path
         id="path80"
         style="fill:#27704c;fill-opacity:1;fill-rule:nonzero;stroke:none"
         d="m 5418.57,6712.08 c 4.77,-0.12 10.82,-0.58 18.13,-1.38 7.31,-0.79 15.09,-1.99 23.33,-3.57 8.24,-1.58 16.52,-3.61 24.84,-6.1 8.32,-2.49 15.93,-5.5 22.85,-9.06 10.49,-5.39 20.08,-11.93 28.78,-19.6 8.69,-7.67 15.29,-16.76 19.8,-27.27 4.51,-10.52 6.26,-22.58 5.26,-36.19 -0.99,-13.61 -5.9,-29 -14.73,-46.16 l -26.08,-50.72 34.43,-17.71 -24.28,-47.21 -226.79,116.65 24.29,47.21 145.32,-74.75 26.1,50.73 c 3.93,7.64 6.15,14.54 6.66,20.68 0.5,6.14 -0.22,11.58 -2.14,16.32 -1.94,4.74 -4.77,8.8 -8.48,12.2 -3.72,3.39 -7.86,6.26 -12.43,8.62 -4.93,2.54 -10.47,4.67 -16.59,6.42 -6.12,1.75 -12.27,3.23 -18.43,4.45 -6.16,1.21 -12.04,2.09 -17.61,2.62 -5.58,0.53 -10.24,0.81 -13.96,0.86 l 1.73,52.96" /><path
         id="path82"
         style="fill:#27704c;fill-opacity:1;fill-rule:nonzero;stroke:none"
         d="m 5538.11,6501.36 87.39,-50.98 -26.74,-45.85 -87.4,50.98 26.75,45.85" /><path
         id="path84"
         style="fill:#27704c;fill-opacity:1;fill-rule:nonzero;stroke:none"
         d="m 5598.18,6349.59 c 2.01,3.17 4.45,5.73 7.34,7.68 2.87,1.96 5.98,3.31 9.34,4.06 3.35,0.75 6.77,0.84 10.27,0.27 3.51,-0.57 6.84,-1.86 10,-3.87 3.17,-2 5.75,-4.46 7.77,-7.39 2.01,-2.91 3.4,-6.05 4.14,-9.4 0.76,-3.34 0.86,-6.74 0.33,-10.18 -0.54,-3.44 -1.81,-6.74 -3.82,-9.91 -1.99,-3.17 -4.46,-5.76 -7.38,-7.77 -2.92,-2.01 -6.05,-3.39 -9.4,-4.15 -3.35,-0.74 -6.79,-0.87 -10.33,-0.35 -3.54,0.51 -6.88,1.77 -10.06,3.78 -3.15,2 -5.73,4.49 -7.7,7.47 -1.98,2.97 -3.34,6.14 -4.1,9.49 -0.75,3.35 -0.83,6.78 -0.27,10.27 0.58,3.5 1.87,6.84 3.87,10 z m 193.49,177.85 -82.33,-129.97 32.71,-20.72 -28.4,-44.85 -131.9,83.55 28.41,44.85 54.33,-34.43 82.33,129.97 44.85,-28.4" /><path
         id="path86"
         style="fill:#27704c;fill-opacity:1;fill-rule:nonzero;stroke:none"
         d="m 5934.61,6519.89 -120.7,-174.46 c -5.37,-7.76 -11.93,-14.06 -19.67,-18.92 -7.75,-4.85 -15.99,-8.04 -24.74,-9.59 -8.74,-1.54 -17.59,-1.41 -26.56,0.4 -8.95,1.81 -17.38,5.44 -25.25,10.89 l -21.22,14.68 30.2,43.66 21.23,-14.68 c 3.76,-2.61 7.8,-3.55 12.1,-2.81 4.31,0.73 7.73,2.92 10.25,6.58 l 120.7,174.46 43.66,-30.21" /><path
         id="path88"
         style="fill:#27704c;fill-opacity:1;fill-rule:nonzero;stroke:none"
         d="m 6018.37,6458.62 -167.59,-225.61 -42.62,31.65 167.58,225.62 42.63,-31.66" /><path
         id="path90"
         style="fill:#27704c;fill-opacity:1;fill-rule:nonzero;stroke:none"
         d="m 6187.35,6152.51 -42.45,37.15 c -3.35,2.92 -7.25,4.27 -11.71,4.01 -4.46,-0.24 -8.24,-2.15 -11.34,-5.7 l -26.74,-30.55 11.6,-10.14 c 8.45,-7.4 14.73,-15.3 18.84,-23.68 4.1,-8.38 6.12,-16.93 6.06,-25.64 -0.06,-8.7 -2.01,-17.46 -5.84,-26.28 -3.85,-8.81 -9.42,-17.4 -16.73,-25.75 -10.51,-12.01 -22.02,-20.52 -34.51,-25.54 -12.5,-5.01 -25.12,-7.25 -37.84,-6.73 -12.73,0.53 -25.19,3.46 -37.4,8.8 -12.21,5.33 -23.32,12.38 -33.35,21.15 -9.93,8.68 -18.37,18.69 -25.31,30.03 -6.96,11.34 -11.55,23.28 -13.75,35.82 -2.22,12.54 -1.69,25.32 1.56,38.32 3.28,13.01 10.16,25.51 20.66,37.52 l 99.12,113.29 40.11,-35.1 -99.11,-113.28 c -4.66,-5.32 -7.6,-10.96 -8.83,-16.89 -1.23,-5.93 -1.16,-11.85 0.22,-17.76 1.37,-5.91 3.85,-11.62 7.41,-17.14 3.58,-5.51 7.86,-10.47 12.87,-14.86 5.02,-4.38 10.5,-7.97 16.44,-10.77 5.94,-2.8 11.95,-4.47 18.04,-5 6.08,-0.53 12.03,0.21 17.85,2.22 5.81,2.02 11.05,5.69 15.71,11.01 4.3,4.91 6.77,9.7 7.45,14.37 0.67,4.67 -0.87,8.64 -4.63,11.94 l -51.7,45.23 61.68,70.51 c 6.31,7.21 13.63,12.79 21.97,16.74 8.34,3.94 16.95,6.23 25.8,6.88 8.87,0.64 17.69,-0.44 26.49,-3.25 8.78,-2.81 16.79,-7.36 23.99,-13.67 l 42.47,-37.15 -35.1,-40.11" /><path
         id="path92"
         style="fill:#27704c;fill-opacity:1;fill-rule:nonzero;stroke:none"
         d="m 6276.96,6139.88 c 17.89,-18.21 31.69,-35.3 41.41,-51.23 9.73,-15.94 15.73,-30.91 18,-44.92 2.28,-14 1.01,-27.12 -3.8,-39.34 -4.83,-12.23 -12.84,-23.83 -24.02,-34.83 l -40.69,-39.97 26.99,-27.47 -37.88,-37.2 -135.09,137.53 37.87,37.2 70.9,-72.19 40.7,39.98 c 5.04,4.96 8.31,10.55 9.8,16.77 1.46,6.22 0.96,13.21 -1.51,20.99 -2.49,7.77 -7.04,16.42 -13.68,25.96 -6.64,9.53 -15.6,20.04 -26.88,31.52 l 37.88,37.2" /><path
         id="path94"
         style="fill:#27704c;fill-opacity:1;fill-rule:nonzero;stroke:none"
         d="m 6281.15,5914.65 67.4,-75.46 -39.58,-35.36 -67.42,75.45 39.6,35.37" /><path
         id="path96"
         style="fill:#27704c;fill-opacity:1;fill-rule:nonzero;stroke:none"
         d="m 6532.68,5932.17 c 2.89,2.4 6.02,4.1 9.42,5.11 3.39,1.02 6.81,1.36 10.22,1.05 3.42,-0.32 6.74,-1.27 9.95,-2.85 3.19,-1.58 6,-3.81 8.38,-6.7 2.4,-2.88 4.08,-6.04 5.04,-9.48 0.95,-3.44 1.28,-6.87 0.97,-10.29 -0.32,-3.42 -1.3,-6.71 -2.92,-9.85 -1.63,-3.16 -3.88,-5.93 -6.76,-8.32 -2.89,-2.39 -6.02,-4.1 -9.42,-5.11 -3.4,-1.02 -6.8,-1.37 -10.22,-1.05 -3.43,0.32 -6.71,1.29 -9.86,2.92 -3.15,1.62 -5.93,3.87 -8.31,6.76 -2.41,2.88 -4.11,6.02 -5.12,9.41 -1.02,3.4 -1.36,6.81 -1.04,10.23 0.31,3.42 1.28,6.7 2.91,9.86 1.62,3.14 3.88,5.92 6.76,8.31 z m -40.95,49.35 c 2.89,2.39 6.02,4.09 9.43,5.11 3.39,1.01 6.79,1.36 10.22,1.04 3.42,-0.32 6.73,-1.27 9.94,-2.85 3.19,-1.57 6,-3.81 8.4,-6.69 2.38,-2.88 4.06,-6.04 5.02,-9.48 0.96,-3.45 1.28,-6.87 0.96,-10.3 -0.31,-3.41 -1.26,-6.73 -2.84,-9.93 -1.58,-3.21 -3.81,-6.01 -6.7,-8.4 -2.87,-2.39 -6.04,-4.07 -9.49,-5.03 -3.44,-0.96 -6.87,-1.28 -10.28,-0.96 -3.42,0.31 -6.71,1.28 -9.86,2.9 -3.15,1.63 -5.92,3.89 -8.32,6.77 -2.38,2.88 -4.09,6.03 -5.1,9.42 -1.02,3.4 -1.37,6.8 -1.06,10.22 0.32,3.42 1.3,6.71 2.92,9.86 1.63,3.15 3.88,5.92 6.76,8.32 z m 38.92,-120.57 -118.4,-98.24 24.73,-29.8 -40.86,-33.9 -99.7,120.15 40.85,33.9 41.07,-49.5 118.4,98.25 33.91,-40.86" /><path
         id="path98"
         style="fill:#27704c;fill-opacity:1;fill-rule:nonzero;stroke:none"
         d="m 6425.17,5746.88 61.73,-80.17 -42.06,-32.38 -61.73,80.15 42.06,32.4" /><path
         id="path100"
         style="fill:#27704c;fill-opacity:1;fill-rule:nonzero;stroke:none"
         d="m 6668.84,5757.88 c 3.05,2.18 6.31,3.65 9.78,4.42 3.45,0.76 6.88,0.86 10.27,0.29 3.38,-0.56 6.61,-1.75 9.7,-3.55 3.07,-1.81 5.71,-4.25 7.89,-7.3 2.18,-3.05 3.61,-6.32 4.32,-9.82 0.71,-3.5 0.78,-6.95 0.22,-10.33 -0.58,-3.4 -1.78,-6.6 -3.63,-9.62 -1.84,-3.03 -4.29,-5.63 -7.34,-7.8 -3.05,-2.18 -6.31,-3.65 -9.78,-4.42 -3.46,-0.76 -6.88,-0.86 -10.27,-0.29 -3.39,0.56 -6.59,1.77 -9.61,3.62 -3.03,1.85 -5.62,4.29 -7.8,7.34 -2.18,3.06 -3.65,6.32 -4.41,9.78 -0.77,3.46 -0.87,6.88 -0.31,10.26 0.57,3.4 1.78,6.61 3.63,9.62 1.85,3.03 4.29,5.63 7.34,7.8 z m 1.13,-82.56 -125.24,-89.36 22.5,-31.53 -43.22,-30.83 -90.7,127.09 43.22,30.84 37.36,-52.36 125.25,89.36 30.83,-43.21" /><path
         id="path102"
         style="fill:#27704c;fill-opacity:1;fill-rule:nonzero;stroke:none"
         d="m 6713.14,5512.35 c -2.95,4.71 -6.65,8.54 -11.1,11.48 -4.45,2.95 -9.24,4.99 -14.37,6.12 -5.12,1.14 -10.39,1.25 -15.79,0.33 -5.4,-0.91 -10.57,-2.91 -15.51,-6 l -36.22,-22.59 c -4.94,-3.09 -9.05,-6.87 -12.29,-11.35 -3.26,-4.49 -5.5,-9.28 -6.74,-14.38 -1.23,-5.11 -1.5,-10.31 -0.82,-15.61 0.69,-5.29 2.51,-10.3 5.45,-15.01 2.93,-4.71 6.65,-8.57 11.15,-11.57 4.48,-3 9.35,-5.04 14.59,-6.1 5.24,-1.06 10.55,-1.16 15.89,-0.28 5.34,0.88 10.42,2.83 15.24,5.84 l 36.39,22.7 c 4.71,2.94 8.67,6.63 11.86,11.08 3.2,4.45 5.46,9.26 6.82,14.44 1.35,5.18 1.66,10.44 0.93,15.8 -0.72,5.35 -2.55,10.39 -5.48,15.1 z m -155.07,58.57 21.05,-33.73 c 2.05,1.94 4.15,3.61 6.29,5.03 2.14,1.42 4.4,2.86 6.75,4.33 l 36.21,22.6 c 11.07,6.9 22.77,11.34 35.12,13.32 12.35,1.98 24.43,1.67 36.28,-0.92 11.84,-2.59 22.85,-7.33 33.05,-14.23 10.19,-6.89 18.7,-15.81 25.53,-26.76 6.83,-10.95 11.03,-22.6 12.6,-34.95 1.58,-12.35 0.9,-24.43 -2.04,-36.25 -2.94,-11.8 -7.98,-22.8 -15.11,-32.98 -7.16,-10.19 -16.08,-18.62 -26.8,-25.31 l -36.38,-22.71 c -10.84,-6.75 -22.39,-11.1 -34.67,-13.04 -12.3,-1.94 -24.38,-1.63 -36.29,0.92 -11.9,2.55 -23.02,7.27 -33.37,14.15 -10.33,6.88 -18.93,15.79 -25.76,26.74 -13.74,22.02 -17.64,44.78 -11.69,68.29 l -35.82,57.39 45.05,28.11" /><path
         id="path104"
         style="fill:#58a3de;fill-opacity:1;fill-rule:nonzero;stroke:none"
         d="m 3368.15,7727.13 42.32,-194.56 48.7,10.6 14.6,-67.13 -53.7,-11.69 c -0.54,-7.64 -2.09,-16.17 -4.65,-25.54 -2.56,-9.38 -6.86,-19.37 -12.92,-29.97 -6.06,-10.6 -14.29,-21.53 -24.71,-32.8 -10.41,-11.28 -23.68,-22.53 -39.8,-33.75 l -39.26,56.25 c 7.8,5.56 14.56,11.02 20.28,16.4 5.73,5.38 10.53,10.56 14.41,15.54 3.87,4.98 6.98,9.71 9.32,14.16 2.34,4.46 4.19,8.67 5.53,12.65 2.98,9.1 3.81,17.55 2.48,25.35 l -49.99,229.82 67.39,14.67" /><path
         id="path106"
         style="fill:#58a3de;fill-opacity:1;fill-rule:nonzero;stroke:none"
         d="m 3436.28,7537.84 129.13,21.66 11.36,-67.76 -129.13,-21.65 -11.36,67.75" /><path
         id="path108"
         style="fill:#58a3de;fill-opacity:1;fill-rule:nonzero;stroke:none"
         d="m 3651.88,7875.96 -21.4,-2.58 0.27,0.03 c -6.04,-0.91 -10.24,-3.26 -12.59,-7.04 -2.35,-3.79 -3.27,-7.72 -2.78,-11.79 0.32,-2.65 0.9,-5.19 1.73,-7.6 0.83,-2.42 1.82,-4.6 2.96,-6.53 1.13,-1.92 2.45,-3.42 3.94,-4.5 1.48,-1.08 2.93,-1.53 4.36,-1.36 l 37.98,4.58 3.06,-25.41 -82.38,-9.93 -3.06,25.41 13.14,1.31 c -3.71,6.79 -6,13.75 -6.86,20.88 -0.64,5.36 -0.51,10.62 0.4,15.79 0.92,5.17 2.79,9.92 5.62,14.25 2.82,4.32 6.76,8 11.82,11.06 5.07,3.04 11.42,5.12 19.06,6.23 l 21.67,2.61 z m 16.79,-103.27 21.34,-177.07 c 1.48,-12.3 0.5,-24.14 -2.92,-35.49 -3.42,-11.36 -8.66,-21.54 -15.72,-30.52 -7.06,-9 -15.7,-16.46 -25.93,-22.4 -10.24,-5.94 -21.5,-9.64 -33.8,-11.13 l -61.79,-7.44 -8.22,68.2 61.79,7.45 c 5.7,0.69 10.37,3.28 13.99,7.79 3.61,4.51 5.08,9.61 4.39,15.32 l -21.34,177.07 68.21,8.22" /><path
         id="path110"
         style="fill:#58a3de;fill-opacity:1;fill-rule:nonzero;stroke:none"
         d="m 3800.99,7879.53 25.84,-362.79 -68.53,-4.88 -25.83,362.79 68.52,4.88" /><path
         id="path112"
         style="fill:#58a3de;fill-opacity:1;fill-rule:nonzero;stroke:none"
         d="m 3918.18,7849.46 c -0.1,4.85 0.7,9.4 2.41,13.66 1.7,4.26 4.09,7.99 7.17,11.2 3.07,3.21 6.7,5.81 10.88,7.78 4.18,1.97 8.7,3.02 13.54,3.12 4.85,0.1 9.41,-0.75 13.67,-2.54 4.25,-1.79 7.99,-4.24 11.2,-7.3 3.21,-3.08 5.8,-6.72 7.78,-10.89 1.97,-4.19 3.01,-8.7 3.12,-13.54 0.1,-4.85 -0.75,-9.4 -2.54,-13.66 -1.8,-4.27 -4.23,-8 -7.31,-11.21 -3.08,-3.21 -6.71,-5.76 -10.89,-7.64 -4.18,-1.89 -8.69,-2.88 -13.54,-2.99 -4.85,-0.1 -9.4,0.7 -13.66,2.41 -4.26,1.7 -8,4.1 -11.2,7.17 -3.21,3.08 -5.76,6.7 -7.65,10.89 -1.88,4.17 -2.87,8.69 -2.98,13.54 z m 71.06,-59.39 4.24,-199.05 49.83,1.06 1.46,-68.68 -54.95,-1.17 c -1.99,-7.41 -5.15,-15.48 -9.45,-24.19 -4.31,-8.71 -10.45,-17.69 -18.43,-26.93 -7.98,-9.24 -18.16,-18.4 -30.54,-27.47 -12.39,-9.06 -27.56,-17.55 -45.54,-25.48 l -27.74,62.73 c 8.71,3.96 16.4,8.03 23.05,12.21 6.65,4.19 12.35,8.35 17.11,12.49 4.77,4.15 8.72,8.18 11.87,12.11 3.15,3.93 5.77,7.71 7.84,11.35 4.68,8.36 7.1,16.5 7.3,24.41 l -5,235.15 68.95,1.46" /><path
         id="path114"
         style="fill:#58a3de;fill-opacity:1;fill-rule:nonzero;stroke:none"
         d="m 4019.47,7591.26 130.89,-3.33 -1.74,-68.68 -130.9,3.33 1.75,68.68" /><path
         id="path116"
         style="fill:#58a3de;fill-opacity:1;fill-rule:nonzero;stroke:none"
         d="m 4237.61,7452.5 c 0.45,4.82 1.76,9.21 3.93,13.16 2.17,3.95 4.97,7.34 8.39,10.18 3.41,2.84 7.32,4.96 11.68,6.36 4.37,1.39 8.97,1.86 13.8,1.42 4.83,-0.45 9.26,-1.77 13.3,-3.95 4.03,-2.17 7.47,-4.97 10.31,-8.4 2.84,-3.41 4.96,-7.27 6.36,-11.55 1.41,-4.27 1.89,-8.83 1.44,-13.66 -0.45,-4.83 -1.77,-9.26 -3.94,-13.29 -2.18,-4.04 -4.98,-7.48 -8.4,-10.32 -3.42,-2.83 -7.32,-5 -11.7,-6.49 -4.37,-1.48 -8.98,-2.01 -13.8,-1.55 -4.83,0.45 -9.27,1.8 -13.29,4.07 -4.03,2.27 -7.46,5.12 -10.3,8.54 -2.84,3.42 -4.96,7.31 -6.35,11.68 -1.41,4.37 -1.88,8.97 -1.43,13.8 z m -51.71,305.15 c 5.79,2.17 13.27,4.53 22.44,7.11 9.17,2.57 19.08,4.9 29.73,6.97 10.66,2.07 21.58,3.63 32.77,4.66 11.19,1.04 21.79,1.09 31.81,0.16 15.2,-1.41 29.87,-4.63 44.02,-9.64 14.15,-5.01 26.45,-12.74 36.94,-23.19 10.49,-10.44 18.41,-24.08 23.8,-40.9 5.37,-16.83 6.91,-37.67 4.6,-62.53 l -6.84,-73.5 49.9,-4.64 -6.36,-68.41 -328.61,30.56 6.36,68.41 210.57,-19.58 6.84,73.5 c 1.03,11.09 0.37,20.44 -1.99,28.06 -2.36,7.61 -5.84,13.8 -10.45,18.56 -4.61,4.75 -9.97,8.27 -16.06,10.55 -6.11,2.29 -12.47,3.73 -19.08,4.35 -7.16,0.66 -14.83,0.56 -23.03,-0.29 -8.2,-0.87 -16.28,-2.06 -24.27,-3.57 -7.99,-1.51 -15.47,-3.29 -22.42,-5.35 -6.96,-2.06 -12.68,-3.97 -17.17,-5.71 l -23.5,64.42" /><path
         id="path118"
         style="fill:#58a3de;fill-opacity:1;fill-rule:nonzero;stroke:none"
         d="m 4600.5,7832.94 -45.3,-270.77 c -2.02,-12.05 -6.23,-23.04 -12.62,-32.99 -6.41,-9.95 -14.3,-18.23 -23.69,-24.86 -9.4,-6.61 -19.84,-11.34 -31.33,-14.14 -11.49,-2.82 -23.34,-3.2 -35.56,-1.16 l -32.95,5.52 11.34,67.75 32.94,-5.51 c 5.85,-0.98 11.09,0.15 15.73,3.38 4.64,3.23 7.43,7.67 8.38,13.35 l 45.3,270.77 67.76,-11.34" /><path
         id="path120"
         style="fill:#58a3de;fill-opacity:1;fill-rule:nonzero;stroke:none"
         d="m 4734.97,7805.73 -75.6,-355.77 -67.2,14.28 75.59,355.76 67.21,-14.27" /><path
         id="path122"
         style="fill:#295b45;fill-opacity:1;fill-rule:nonzero;stroke:none"
         d="m 1316.97,3280.75 c 9.53,3.38 19.4,6.88 29.06,9.91 4.46,-12.59 10.73,-30.3 15.91,-44.93 3.74,-10.56 25.43,-71.83 28.09,-79.31 5.4,-14.18 9.62,-26.1 12.27,-33.59 -20.38,-9.52 -41,-18.34 -61.63,-27.19 -5.31,9.62 -10.77,20.71 -15.89,31.92 l 26.52,17.06 c 3.16,1.88 4.5,3.51 3.72,8.97 -1.01,5.01 -3.17,16.51 -10.4,36.94 -0.36,1.01 -1.06,1.91 -1.3,2.59 l -73.65,-25.69 c 3.97,-11.24 7.94,-21.33 11.67,-31.88 2.51,-6.01 4.79,-5.97 9.12,-5.2 l 14.68,2.9 c 4.2,-10.77 7.72,-21.78 10.77,-32.59 -11.69,-3.74 -24.41,-7.87 -36.66,-12.2 -12.72,-4.13 -24.97,-8.47 -35.19,-12.08 -3.95,10.09 -8.03,20.53 -12.01,31.75 l 15.18,6.91 c 4.52,2.37 5.5,5.01 3.57,10.46 -2.93,10.46 -6.21,20.78 -10.07,31.68 l -59.01,-20.51 11.88,-36.79 c -9.19,-3.26 -19.4,-6.87 -29.39,-10.03 -6.51,18.38 -15.09,43.7 -22.81,65.48 -5.54,15.66 -12.03,32.89 -16.98,46.85 9.54,3.39 19.75,7 29.06,9.91 l 6.83,-17.12 c 0.7,-0.89 1.28,-1.46 1.96,-1.22 l 160.55,57.25 -5.85,19.75" /><path
         id="path124"
         style="fill:#295b45;fill-opacity:1;fill-rule:nonzero;stroke:none"
         d="m 1265.1,2938.23 c 11.32,-2.62 25.32,1.38 47.58,10.88 20.26,8.65 29.43,15.7 35.98,22.44 5.42,6.62 6.18,14.02 3.63,20 -2.55,5.99 -7.15,10.31 -14.97,12.07 -10.24,1.91 -24.28,-0.16 -44.54,-8.8 -24.58,-10.5 -34.6,-18.31 -39.59,-25.94 -4.8,-7.15 -5,-13.13 -2.45,-19.1 2.41,-5.65 6.34,-10.25 14.36,-11.55 z m -48.43,63.76 c 6.43,20.81 20.4,37.77 45.98,48.68 26.24,11.21 54.79,9.65 77.91,-4.04 17.2,-9.94 30.69,-27.74 39.2,-47.67 7.52,-17.61 9.91,-34.26 7.47,-50.62 -3.73,-21.61 -19.13,-43.51 -48.69,-56.12 -29.24,-12.48 -60.95,-7.16 -81.94,7.04 -13.83,9.41 -25.24,24.17 -33.32,43.11 -8.37,19.6 -12.23,41.51 -6.61,59.62" /><path
         id="path126"
         style="fill:#295b45;fill-opacity:1;fill-rule:nonzero;stroke:none"
         d="m 1304.02,2840.91 8.22,-14.87 c 0.81,-0.81 1.29,-0.97 1.94,-0.65 26.17,13.06 56.23,28.05 81.43,40.61 l -8.53,19.55 c 8.72,4.35 18.26,8.7 26.82,12.56 8.87,-13.73 39.66,-58.5 40.47,-60.12 0.16,-0.33 0.32,-0.65 -0.32,-0.96 -13.42,-7.9 -26.35,-15.96 -39.76,-23.86 l 0.64,-2.11 c 48.12,-1.02 56.03,-6.36 64.09,-22.52 4.03,-8.08 6.44,-17.77 7.4,-25.36 -15.19,-7.58 -45.88,-11.57 -54.43,-8.18 -0.81,3.23 -3.06,14.22 -6.92,21.98 -1.61,3.22 -3.39,5.98 -7.58,7.93 -7.76,3.39 -15.98,5.34 -30.68,5.68 -9.69,0.01 -20.36,-4.5 -29.57,-8.68 -5.49,-2.75 -12.92,-6.45 -17.77,-8.87 l 12.24,-26.98 c -8.73,-4.36 -17.77,-8.86 -26.82,-12.56 -6.77,13.57 -16.76,33.6 -24.33,48.8 -7.09,14.22 -16.43,32.16 -23.2,45.73 8.73,4.34 18.42,9.18 26.66,12.88" /><path
         id="path128"
         style="fill:#295b45;fill-opacity:1;fill-rule:nonzero;stroke:none"
         d="m 1457.04,2503.27 c -3.37,2.22 -23.66,27.2 -35.59,47.83 0.72,6.68 2.88,13.77 7.31,23.43 l -0.9,1.56 c -29.53,17.14 -33.9,22.54 -41.13,35.04 -11.03,19.08 0.24,57.3 19.31,68.34 23.76,13.74 48.64,27.71 69.14,39.15 l -7.5,14.44 c 8.43,4.87 17.69,9.81 26,14.19 8.03,-12.45 36.05,-58 38.71,-61.89 0.36,-0.63 -0.08,-1.3 -0.71,-1.65 -21.88,-12.67 -49.94,-27.64 -72.77,-40.85 -9.06,-5.24 -20.19,-11.25 -24.71,-19.3 -3.78,-7.18 -1.55,-11.74 0.79,-15.81 3.08,-5.31 9.61,-11.54 17.42,-14.96 21.44,11.99 52.53,30.38 71.29,41.23 l -8.24,15.69 c 8.93,4.74 18.63,10.35 26.94,14.74 7,-11.38 36.51,-60.25 39.22,-64.94 0.18,-0.3 -0.57,-1.16 -0.89,-1.34 -33.32,-18.86 -71.2,-39.93 -107.16,-60.73 -1.25,-0.72 -1.69,-1.4 -1.15,-2.33 l 10.75,-17.14 c -8.13,-4.71 -18,-10.01 -26.13,-14.7" /><path
         id="path130"
         style="fill:#295b45;fill-opacity:1;fill-rule:nonzero;stroke:none"
         d="m 1569.88,2543.77 c 7.7,5.38 16.79,11.28 24.2,16.43 11.29,-12.38 49.3,-52.35 50.54,-54.13 0.21,-0.29 0.12,-0.79 -0.18,-1 -4.8,-5.12 -10.01,-9.64 -15.02,-14.45 l 0.53,-1.4 c 35.01,-16.09 40.59,-19.67 49.06,-31.81 10.96,-15.7 3.82,-38.29 1.83,-43.65 l 1.03,-1.48 c 37.35,-17.55 42.84,-21.64 50.7,-32.89 8.88,-12.74 9,-28.07 4.6,-42.59 -3,-9.58 -10.98,-20.87 -20.16,-27.27 -21.03,-14.68 -45.44,-30.83 -64.6,-43.76 l 10.16,-15.81 c -8.01,-5.58 -17.1,-11.49 -25.3,-16.76 -7.23,10.36 -17.56,25.17 -25.42,36.43 -8.68,12.44 -18.48,25.86 -25.71,36.22 8,5.59 17.17,11.99 24.88,17.37 l 8.12,-9.75 c 0.41,-0.6 1.42,-0.77 2.01,-0.37 15.41,10.75 36.14,25.22 50.94,35.55 5.34,3.72 9.88,7.32 12.78,11.99 3.08,5.68 2.18,10.77 -1.55,16.1 -4.13,5.93 -13.88,12.34 -21.57,15.78 -18.95,-13.23 -47.6,-32.77 -66.17,-45.29 l 7.67,-12.26 c -7.99,-5.58 -16.88,-11.78 -25.08,-17.06 -7.23,10.36 -17.36,24.88 -25.84,37.02 -7.64,10.96 -16.41,22.9 -22.4,31.49 8.29,5.79 17.38,11.69 25.09,17.06 l 8.32,-10.04 c 0.92,-0.68 1.72,-0.57 2.31,-0.15 14.81,10.33 35.84,25.01 53.32,37.19 5.03,3.51 9.57,7.13 11.88,11.38 2.91,4.66 1.41,9.34 -1.7,13.79 -4.13,5.92 -14.8,13.01 -23.88,15.93 -17.39,-11.7 -47.8,-32.48 -65.28,-44.68 l 7.67,-12.25 c -7.99,-5.58 -16.88,-11.78 -24.88,-17.36 -7.85,11.26 -17.97,25.77 -26.66,38.21 -7.85,11.25 -17.97,25.77 -25.62,36.73 8,5.58 17.18,11.99 25.09,17.06 l 10.93,-14.39 c 0.61,-0.9 1.42,-0.78 2.3,-0.16 l 72.87,50.84 -11.81,18.19" /><path
         id="path132"
         style="fill:#295b45;fill-opacity:1;fill-rule:nonzero;stroke:none"
         d="m 1870.35,2265.66 c 7.7,7.09 16.71,14.9 24.15,21.76 17.13,-18.6 42.58,-46.22 61.42,-66.67 -13.9,-27.54 -49.27,-92.55 -73.87,-137.8 l 1.96,-2.13 c 47.6,20.29 103.8,44.57 144.11,61.58 17.13,-18.59 40.38,-43.81 56.78,-61.61 -7.44,-6.85 -16.45,-14.67 -24.15,-21.76 l -13.03,12.54 c -0.49,0.54 -1.27,0.31 -1.8,-0.18 -37.73,-35.26 -83.42,-77.35 -123.28,-114.58 l 12.67,-15.34 c -6.9,-6.36 -15.14,-13.95 -22.56,-20.29 -8.07,8.77 -20.06,21.78 -29.12,31.6 -11.99,13.02 -25.69,27.89 -35.98,39.05 7.18,6.61 15.66,13.93 22.56,20.29 l 14.75,-14.4 c 0.73,-0.8 1.26,-0.31 1.8,0.18 27.64,25.96 56.87,53.39 88.52,83.53 l -1.96,2.13 c -61.14,-26.38 -106.27,-42.43 -141.53,-54.79 -3.67,3.98 -13.97,14.62 -21.56,22.86 17.69,38.9 38.02,79.73 70.86,138.96 l -2.21,2.39 c -33.42,-29.82 -64.17,-56.68 -95.46,-84.54 l 16.06,-19.56 c -6.9,-6.37 -15.13,-13.95 -22.55,-20.3 -8.81,9.57 -21.29,23.11 -31.57,34.27 -9.05,9.82 -16.88,18.32 -24.96,27.09 7.17,6.6 15.4,14.19 22.31,20.55 l 13.52,-13.07 c 0.75,-0.3 1.26,-0.31 1.8,0.18 38.22,34.73 87.05,78.73 124.99,112.72 l -12.67,15.34" /><path
         id="path134"
         style="fill:#295b45;fill-opacity:1;fill-rule:nonzero;stroke:none"
         d="m 2198.28,1963.71 c -26.48,3.11 -54.21,5.91 -78.4,9.39 -0.09,7.41 0.02,16.1 0.39,24.55 24.78,0.4 53.35,1.72 78.63,2.13 0.81,-11.97 0.12,-24.54 -0.62,-36.07 z m -119.66,-26.78 c -8.07,-2.42 -14.56,-5.8 -24.02,-16.71 9.34,-8.51 22.66,-20.17 30.65,-26.95 1.6,-1.46 3.37,-1.12 5.07,0.75 5.11,5.6 10.37,13.51 12.15,19.22 1.97,6.99 0.89,13.85 -4.72,18.96 -4.54,4.13 -10.05,7.2 -19.13,4.73 z m 44.63,13.06 c 16.55,-15.07 23.75,-32.38 23.42,-47.22 -0.71,-17.93 -8.28,-36.42 -23.85,-53.5 -3.91,-3.76 -26.38,-4.3 -28.76,-2.62 -7.67,5.52 -35.16,30.56 -58.92,52.21 -7.49,-9.29 -8.91,-17.29 -8.6,-23.91 0.79,-11.46 7.24,-18.32 14.19,-24.65 11.47,-10.46 32.71,-22 44.44,-26.81 -4.45,-8.65 -10.1,-19.14 -15.11,-26.78 -22.32,7.14 -50.67,23.2 -63.48,34.87 -35.5,32.35 -46.66,74.27 -12.36,111.9 34.53,37.91 88.99,42.99 129.03,6.51" /><path
         id="path136"
         style="fill:#295b45;fill-opacity:1;fill-rule:nonzero;stroke:none"
         d="m 2254.68,1787.44 c -2.63,4.82 -7.08,12.01 -13.88,17.39 -5.39,4.25 -12.63,6.73 -20,3.81 -9.62,-3.46 -19.55,-10.79 -32.97,-27.82 -8.96,-11.33 -13.74,-20.9 -14.69,-30.27 -0.41,-5.19 1.56,-13.19 6.95,-17.44 5.67,-4.48 11.67,-7.37 22.17,-9.22 1.58,-0.32 2.99,0.87 5.22,3.71 14.76,18.72 32.37,41.63 47.2,59.84 z m -66.01,-87.78 c -34.64,7.99 -41.55,12.07 -48.64,17.66 -10.78,8.51 -20,21.31 -22.44,39.78 -2.03,17.25 2.67,38.38 17.43,57.1 17.01,21.55 39.59,35.02 66.13,38.93 18.87,3.5 39.79,-3.8 52.55,-13.87 10.21,-8.04 17.44,-16.97 21.7,-22.63 l 2.66,-0.72 c 10.29,13.04 21.13,27.96 31.81,42.08 l -20.6,17.62 c 5.98,8.17 12.75,16.16 19.08,23.6 17.56,-11.56 69.9,-43.18 73.01,-45.64 0.29,-0.22 0.35,-0.74 -0.09,-1.3 -36.02,-45.65 -94.13,-117.58 -134.9,-168.68 -1.35,-1.7 -1.67,-3.28 -0.26,-4.41 l 15.14,-10.55 c -5.59,-7.09 -12.24,-16.11 -18.35,-23.26 -5.02,1.21 -32.82,16.7 -51.82,31.69 -1.8,6.47 -1.78,12.9 -0.43,21.03 l -1.98,1.57" /><path
         id="path138"
         style="fill:#295b45;fill-opacity:1;fill-rule:nonzero;stroke:none"
         d="m 2452.28,1759.41 c -11.15,-16 -31.62,-17.58 -46.43,-7.25 -12.74,8.88 -18.13,28.92 -7.6,44.02 8.67,12.44 28.09,16.95 44.39,5.6 17.17,-11.98 18.31,-29.93 9.64,-42.37 z m -120.54,-30.86 c 5.57,7.99 12.27,16.97 18.15,24.77 16.82,-9.97 69.55,-36.6 71.92,-38.26 0.59,-0.41 0.38,-0.71 -0.03,-1.29 -22.59,-31.8 -54.98,-77 -75.63,-106.61 l 15.88,-11.95 c -5.78,-8.29 -11.56,-16.59 -17.13,-24.59 -11.26,7.85 -28.15,19.62 -40.88,28.5 -12.44,8.67 -28.35,19.31 -40.49,27.78 5.57,8 11.76,16.88 17.43,24.37 l 16.11,-10.34 c 1.1,-0.32 1.8,0.06 2.22,0.66 l 50.79,72.86 -18.34,14.1" /><path
         id="path140"
         style="fill:#295b45;fill-opacity:1;fill-rule:nonzero;stroke:none"
         d="m 2398.01,1544.72 c -4.45,14.7 -0.97,22.31 4.39,30.9 10.71,17.15 20.78,32.58 23.07,36.26 4.02,6.43 22.89,35.95 25.38,39.94 -5.21,3.25 -13.79,8.61 -21.44,13.39 5.35,8.58 11.4,17.58 17.18,25.47 6.81,-3.4 14.55,-7.38 21.06,-10.6 1.22,-0.76 2.72,-0.42 3.67,1.11 5.89,7.4 12.83,17.12 18.34,23.89 20.1,-1.91 54.86,-11.69 55.78,-12.27 0.62,-0.38 0.73,-0.88 0.16,-1.8 -4.52,-6.55 -22.24,-34.23 -27.71,-42.31 15.62,-9.76 32.78,-20.47 47.37,-29.16 -5.56,-8.89 -12.36,-19.11 -19.03,-27.72 -12.86,8.03 -31.67,20.2 -45.75,29 -1.72,-2.76 -5.86,-8.7 -16.38,-25.54 -7.85,-12.56 -15.31,-24.51 -23.92,-38.29 -5.36,-8.58 -1.26,-18.38 5.48,-22.59 12.25,-7.66 25.23,-12.78 36.26,-16.27 -3.64,-9.22 -8.34,-19.48 -12.7,-27.83 -26.31,4.93 -50.39,16.14 -73.06,30.31 -8.27,5.15 -14.59,12.08 -18.15,24.11" /><path
         id="path142"
         style="fill:#295b45;fill-opacity:1;fill-rule:nonzero;stroke:none"
         d="m 2623.22,1545.47 c -7.25,-4.29 -12.74,-9.11 -19.31,-21.98 11.1,-6.03 26.83,-14.15 36.21,-18.83 1.9,-1.03 3.55,-0.28 4.75,1.95 3.62,6.66 6.83,15.6 7.19,21.58 0.24,7.26 -2.46,13.65 -9.12,17.26 -5.4,2.93 -11.49,4.58 -19.72,0.02 z m 40.21,23.37 c 19.69,-10.67 30.82,-25.75 34.05,-40.24 3.62,-17.57 0.69,-37.35 -10.33,-57.66 -2.9,-4.59 -24.59,-10.5 -27.3,-9.43 -8.77,3.52 -41.47,21.26 -69.72,36.59 -5.05,-10.83 -4.51,-18.92 -2.63,-25.29 3.52,-10.95 11.43,-16.05 19.68,-20.54 13.65,-7.4 37.04,-13.52 49.58,-15.39 -2.25,-9.45 -5.22,-20.99 -8.26,-29.62 -23.38,1.59 -54.76,10.39 -70,18.66 -42.22,22.91 -63.08,60.94 -38.8,105.7 24.46,45.07 76.12,63.06 123.73,37.22" /><path
         id="path144"
         style="fill:#295b45;fill-opacity:1;fill-rule:nonzero;stroke:none"
         d="m 2690.53,1404.23 15.72,-6.45 c 1.14,-0.12 1.61,0.05 1.92,0.71 12.24,26.56 26.3,57.07 38.09,82.65 l -18.89,9.89 c 4.07,8.86 8.79,18.23 13.04,26.6 15.52,-5.17 67.56,-20.8 69.2,-21.55 0.33,-0.16 0.66,-0.31 0.36,-0.97 -5.52,-14.55 -10.56,-28.94 -16.08,-43.48 l 1.82,-1.24 c 38.17,29.33 47.68,30.11 64.08,22.56 8.2,-3.79 16.14,-9.84 21.65,-15.15 -7.11,-15.42 -28.53,-37.74 -37.33,-40.45 -2.65,2.02 -11.28,9.17 -19.16,12.8 -3.28,1.51 -6.38,2.54 -10.87,1.43 -8.17,-2.19 -15.81,-5.83 -27.48,-14.77 -7.56,-6.05 -13.06,-16.25 -17.62,-25.28 -2.57,-5.57 -6.05,-13.11 -8.31,-18.03 l 26.44,-13.39 c -4.09,-8.85 -8.32,-18.04 -13.06,-26.59 -13.77,6.35 -34.1,15.73 -49.52,22.83 -14.43,6.65 -32.95,14.78 -46.72,21.14 4.08,8.85 8.62,18.69 12.72,26.74" /><path
         id="path146"
         style="fill:#295b45;fill-opacity:1;fill-rule:nonzero;stroke:none"
         d="m 2853.73,1330.44 16.09,-5.45 c 1.15,-0.05 1.61,0.16 1.87,0.83 10.55,27.3 22.64,58.62 32.79,84.92 l -19.49,8.68 c 3.52,9.1 7.62,18.73 11.35,27.37 15.81,-4.17 68.75,-16.49 70.44,-17.13 0.33,-0.13 0.67,-0.26 0.41,-0.93 -4.59,-14.88 -8.7,-29.55 -13.29,-44.43 l 1.89,-1.13 c 36.25,31.69 45.69,33.09 62.54,26.59 8.42,-3.26 16.74,-8.8 22.57,-13.76 -6.11,-15.83 -26.09,-39.49 -34.7,-42.75 -2.78,1.85 -11.85,8.45 -19.93,11.57 -3.37,1.3 -6.54,2.14 -10.95,0.74 -8.01,-2.71 -15.41,-6.82 -26.5,-16.48 -7.16,-6.52 -12,-17.05 -15.98,-26.36 -2.21,-5.72 -5.2,-13.47 -7.16,-18.53 l 27.25,-11.68 c -3.52,-9.1 -7.16,-18.53 -11.35,-27.37 -14.15,5.46 -35.04,13.53 -50.88,19.66 -14.83,5.72 -33.83,12.67 -47.98,18.13 3.52,9.1 7.42,19.21 11.01,27.51" /><path
         id="path148"
         style="fill:#295b45;fill-opacity:1;fill-rule:nonzero;stroke:none"
         d="m 3080.05,1250.35 c 8.95,-2.83 19.31,-1.16 25.46,0.3 0.9,0.47 1.23,1.51 1.34,1.85 2.6,8.27 4.66,14.81 7.49,23.76 -1.96,1.01 -4.72,1.87 -7.13,2.63 -22.39,7.06 -35.52,0.21 -38.78,-10.12 -2.6,-8.27 4.73,-16.25 11.62,-18.42 z m 18.46,-25.51 c -23.92,-3.82 -41.63,-3.55 -54.71,0.58 -18.25,5.75 -39.03,32.35 -32.19,54.05 6.07,19.29 39.11,44.84 93.87,27.6 7.58,-2.39 13.09,-4.12 16.53,-5.2 6.46,16.89 3.41,28.83 -12.09,33.71 -11.71,3.69 -33,-0.21 -49.47,-5.62 -4.15,9.64 -7.64,20.21 -10.44,30.55 31.09,12.16 61.26,17.81 93.98,7.5 26.52,-8.35 45.64,-38.98 36.42,-68.26 -7.16,-22.73 -17.7,-55 -22.71,-69.71 -0.65,-2.05 -0.87,-2.75 0.85,-3.29 l 18.58,-4.71 c -2.82,-8.96 -5.73,-19.4 -8.89,-28.24 -6.16,-0.33 -32.14,2.54 -59.69,11.23 -2.47,4.17 -5.21,11.09 -8.32,19.27 l -1.72,0.54" /><path
         id="path150"
         style="fill:#295b45;fill-opacity:1;fill-rule:nonzero;stroke:none"
         d="m 3222.68,1301.13 c 2.31,9.85 5.06,19.95 7.12,28.74 17.91,-2.73 72,-6.17 74.11,-6.67 0.71,-0.16 0.62,-0.51 0.54,-0.86 0.02,-7.8 -0.31,-15.51 -0.29,-23.3 l 1.67,-0.77 c 39.06,13.08 47.37,13.71 63.54,9.92 15.11,-3.57 26.39,-20.31 30.61,-33.91 4.11,-12.47 2.95,-23.7 0.72,-33.19 -4.71,-20.03 -12.62,-48.96 -18.27,-71.37 l 17.42,-4.84 c -2.24,-9.49 -4.72,-20.03 -7.22,-29.09 -13.36,3.14 -30.58,7.19 -45.34,10.66 -15.11,3.55 -31.72,7.09 -44.02,9.98 2.23,9.49 4.71,20.04 7.21,29.1 l 14.23,-2.61 c 0.78,0.19 1.21,0.45 1.81,1.43 3.67,13.98 7.94,33.74 11.17,47.46 3.44,16.25 5.43,24.67 4.21,30.53 -1.95,7.5 -6.27,9.64 -11.54,10.87 -7.73,1.83 -21.01,-0.99 -31.01,-5.68 -5.15,-20.3 -13.79,-53.88 -18.5,-73.92 l 14.87,-4.61 c -2.24,-9.49 -4.63,-19.68 -7.13,-28.75 -12.31,2.91 -29.88,7.03 -43.94,10.34 -14.76,3.47 -32.77,7.33 -46.48,10.56 2.23,9.49 4.71,20.03 7.21,29.09 l 17.39,-3.34 c 1.14,0.1 1.65,0.72 1.82,1.42 l 20.42,86.82 -22.33,5.99" /><path
         id="path152"
         style="fill:#295b45;fill-opacity:1;fill-rule:nonzero;stroke:none"
         d="m 3595.89,1328.53 c -23.88,-11.86 -48.65,-24.67 -70.81,-34.96 -4.13,6.15 -8.78,13.5 -13.09,20.79 20.55,13.85 43.76,30.57 64.72,44.72 7.23,-9.59 13.5,-20.49 19.18,-30.55 z m -85.63,-87.81 c -5.44,-6.43 -9.03,-12.79 -11,-27.11 12.48,-2.03 30,-4.52 40.4,-5.84 2.14,-0.34 3.44,0.91 3.85,3.4 1.21,7.49 1.29,16.99 -0.33,22.74 -2.17,6.94 -6.81,12.08 -14.3,13.3 -6.06,0.98 -12.35,0.54 -18.62,-6.49 z m 30.26,35.33 c 22.1,-3.59 37.58,-14.15 45.41,-26.78 9.21,-15.39 12.97,-35.04 9.25,-57.85 -1.23,-5.29 -19.76,-18 -22.67,-17.9 -9.44,0.44 -46.16,6.41 -77.88,11.57 -1.2,-11.88 1.97,-19.35 5.85,-24.74 6.92,-9.17 16.08,-11.39 25.35,-12.91 15.32,-2.48 39.43,-0.55 51.88,1.82 0.99,-9.68 1.99,-21.54 1.96,-30.69 -22.6,-6.21 -55.12,-8.23 -72.23,-5.45 -47.42,7.71 -79.65,36.74 -71.48,86.99 8.24,50.63 51.09,84.64 104.56,75.94" /><path
         id="path154"
         style="fill:#295b45;fill-opacity:1;fill-rule:nonzero;stroke:none"
         d="m 3695.26,1215.67 c -5.03,-6.75 -8.24,-13.33 -9.33,-27.74 12.58,-1.26 30.23,-2.68 40.68,-3.37 2.16,-0.22 3.38,1.12 3.64,3.63 0.76,7.54 0.25,17.03 -1.72,22.68 -2.58,6.79 -7.54,11.64 -15.08,12.4 -6.11,0.61 -12.36,-0.21 -18.19,-7.6 z m 28.06,37.1 c 22.27,-2.24 38.37,-11.85 46.95,-23.96 10.12,-14.81 15.07,-34.18 12.76,-57.18 -0.91,-5.36 -18.63,-19.19 -21.54,-19.25 -9.46,-0.15 -46.46,3.59 -78.45,6.8 -0.47,-11.93 3.15,-19.19 7.35,-24.34 7.47,-8.73 16.74,-10.39 26.09,-11.32 15.44,-1.56 39.39,1.83 51.67,4.96 1.58,-9.61 3.3,-21.39 3.83,-30.52 -22.18,-7.57 -54.52,-11.57 -71.77,-9.84 -47.79,4.82 -81.74,31.82 -76.64,82.49 5.14,51.03 45.84,87.59 99.75,82.16" /><path
         id="path156"
         style="fill:#295b45;fill-opacity:1;fill-rule:nonzero;stroke:none"
         d="m 3810.59,1203.47 c 0.36,10.1 1.11,20.56 1.43,29.57 18.09,0.8 71.83,7.9 74,7.82 0.72,-0.03 0.71,-0.38 0.7,-0.75 1.53,-7.64 2.7,-15.27 4.23,-22.91 l 1.78,-0.43 c 35.79,20.39 43.82,22.63 60.42,22.03 15.52,-0.56 29.82,-14.81 36.6,-27.33 6.45,-11.44 7.49,-22.68 7.14,-32.42 -0.74,-20.57 -2.91,-50.49 -4.1,-73.57 l 18.02,-1.37 c -0.35,-9.74 -0.74,-20.57 -1.44,-29.95 -13.71,0.51 -31.4,1.14 -46.56,1.68 -15.51,0.57 -32.49,0.82 -45.12,1.28 0.36,9.74 0.74,20.57 1.44,29.94 l 14.46,0.19 c 0.74,0.33 1.11,0.69 1.52,1.75 0.88,14.43 1.24,34.65 1.75,48.72 0.24,16.62 0.55,25.28 -1.78,30.79 -3.36,6.98 -8.01,8.24 -13.43,8.43 -7.94,0.28 -20.42,-5.04 -29.33,-11.59 -1.11,-20.92 -3.08,-55.54 -3.82,-76.11 l 15.48,-1.64 c -0.35,-9.74 -0.73,-20.21 -1.43,-29.58 -12.63,0.45 -30.68,1.1 -45.11,1.63 -15.16,0.54 -33.58,0.85 -47.65,1.36 0.35,9.74 0.74,20.56 1.44,29.93 l 17.71,0.08 c 1.09,0.34 1.48,1.03 1.51,1.76 l 3.22,89.14 -23.08,1.55" /><path
         id="path158"
         style="fill:#295b45;fill-opacity:1;fill-rule:nonzero;stroke:none"
         d="m 4240.41,1193.55 c -3.13,4.17 -8.11,8.94 -14.96,8.54 -7.21,-0.42 -17.45,-4.63 -27.53,-11.72 0.81,-20.21 2.09,-48.71 3.26,-68.9 0.42,-7.2 15.15,-11.78 22.72,-11.34 6.49,0.37 13.92,3.33 17.84,10.43 4.61,7.87 7.13,20.68 6.02,39.78 -0.98,16.94 -3.81,28.35 -7.35,33.21 z m -110.74,-173.87 17.22,2.44 c 0.72,0.05 1.38,1.16 1.33,1.88 l -9.69,173.79 -23.11,-0.61 c -0.57,9.72 -0.81,20.2 -0.99,29.6 17.2,2.8 71.09,15.31 72.9,15.42 0.71,0.04 0.71,0.04 0.76,-0.68 1.81,-6.41 3.29,-13.19 5.11,-19.59 l 2.18,-0.24 c 35.28,21.58 39.55,22.9 54.33,23.76 29.9,2.09 57.1,-30.33 58.9,-67.84 0.96,-16.58 -2.04,-33.4 -8.01,-48.94 -4.42,-11.11 -11.94,-24.92 -25.74,-36.58 -6.9,-5.81 -23.49,-12.93 -37.91,-13.76 -13.69,-0.79 -23.89,0.43 -32.01,3.22 l -2.48,-0.87 c 1.4,-18 2.46,-36.4 3.53,-54.78 l 29.6,0.99 c 0.59,-10.1 0.83,-20.57 1.01,-29.96 -17.31,-1.012 -38.93,-2.262 -58.02,-3.719 -14.42,-0.84 -33.53,-1.941 -47.56,-3.121 -0.56,9.738 -1.17,20.2 -1.35,29.59" /><path
         id="path160"
         style="fill:#295b45;fill-opacity:1;fill-rule:nonzero;stroke:none"
         d="m 4450.3,1136.03 c 5.63,10.18 5.6,24.74 2.55,48.74 -2.78,21.85 -7.06,32.59 -11.74,40.73 -4.89,7.02 -11.79,9.79 -18.24,8.97 -6.45,-0.82 -11.86,-4.06 -15.7,-11.1 -4.64,-9.33 -6.49,-23.39 -3.71,-45.25 3.37,-26.5 8.14,-38.27 14.11,-45.15 5.57,-6.58 11.26,-8.4 17.71,-7.58 6.09,0.77 11.6,3.29 15.02,10.64 z m -74.55,-29.13 c -18.25,11.88 -30.74,29.94 -34.25,57.53 -3.6,28.29 5.71,55.32 25.2,73.81 14.26,13.82 35.07,21.93 56.56,24.66 18.98,2.41 35.65,0.17 50.71,-6.65 19.77,-9.5 36.61,-30.3 40.66,-62.17 4.01,-31.52 -9.77,-60.57 -29.17,-76.87 -12.83,-10.73 -30.15,-17.66 -50.57,-20.26 -21.13,-2.69 -43.26,-0.41 -59.14,9.95" /><path
         id="path162"
         style="fill:#295b45;fill-opacity:1;fill-rule:nonzero;stroke:none"
         d="m 4748.55,1158.59 c -3.19,-2.48 -33.37,-13.68 -56.74,-18.37 -6.1,2.83 -12.12,7.15 -19.84,14.45 l -1.77,-0.36 c -25.71,-22.47 -32.23,-24.88 -46.39,-27.72 -21.61,-4.32 -54.2,18.61 -58.54,40.22 -5.39,26.91 -10.65,54.97 -14.91,78.05 l -16.08,-2.48 c -1.91,9.56 -3.62,19.91 -5.11,29.19 14.38,3.61 66.51,15.54 71.05,16.82 0.71,0.14 1.2,-0.49 1.34,-1.21 4.97,-24.79 10.16,-56.17 15.34,-82.03 2.06,-10.26 4.19,-22.73 10.35,-29.6 5.61,-5.88 10.63,-5.24 15.24,-4.32 6.02,1.21 14.03,5.38 19.76,11.69 -4.47,24.16 -11.93,59.51 -16.19,80.76 l -17.49,-2.78 c -1.63,10 -3.84,20.98 -5.33,30.25 13.03,2.99 68.78,15.26 74.09,16.33 0.36,0.07 0.93,-0.92 0.99,-1.28 7.18,-37.6 14.99,-80.25 23.15,-120.98 0.29,-1.42 0.78,-2.05 1.84,-1.85 l 19.69,4.69 c 1.85,-9.2 3.7,-20.26 5.55,-29.47" /><path
         id="path164"
         style="fill:#295b45;fill-opacity:1;fill-rule:nonzero;stroke:none"
         d="m 4771.09,1191.52 16.19,5.13 c 0.96,0.62 1.21,1.08 1.02,1.77 -7.64,28.24 -16.41,60.66 -23.77,87.86 l -20.86,-4.52 c -2.54,9.4 -4.93,19.62 -7.03,28.77 15.21,5.98 65.18,27.37 66.92,27.84 0.35,0.09 0.7,0.19 0.89,-0.51 5.1,-14.71 10.46,-28.97 15.56,-43.68 l 2.18,0.22 c 10.49,46.99 17.28,53.68 34.71,58.4 8.72,2.36 18.7,2.82 26.33,2.26 4.43,-16.38 2.31,-47.27 -2.71,-54.98 -3.32,-0.16 -14.54,-0.2 -22.9,-2.46 -3.49,-0.94 -6.53,-2.14 -9.27,-5.88 -4.85,-6.92 -8.39,-14.61 -11.61,-28.95 -1.93,-9.5 0.39,-20.85 2.69,-30.7 1.6,-5.93 3.77,-13.95 5.19,-19.18 l 28.87,6.69 c 2.54,-9.42 5.19,-19.18 7.04,-28.78 -14.65,-3.96 -36.26,-9.81 -52.65,-14.24 -15.34,-4.15 -34.76,-9.79 -49.41,-13.74 -2.55,9.4 -5.38,19.86 -7.38,28.68" /><path
         id="path166"
         style="fill:#295b45;fill-opacity:1;fill-rule:nonzero;stroke:none"
         d="m 5014.79,1263.42 17.64,7.49 c 1.02,0.35 1.11,1.16 0.87,1.84 -18.68,51.99 -42.61,118.6 -60.67,168.9 l -23.47,-7.28 c -3.42,9.52 -6.75,19.83 -9.58,28.79 17.96,8.75 70.79,35.78 74.19,37.01 0.68,0.24 1.13,0.02 1.5,-0.99 20.27,-56.42 50.87,-144.8 73.23,-208.14 l 20.08,6.06 c 3.3,-9.17 6.83,-19.03 9.68,-27.98 -13.27,-4.76 -31.28,-11.23 -47.25,-16.97 -14.27,-5.12 -32.16,-11.94 -46.43,-17.06 -3.29,9.17 -6.62,19.48 -9.79,28.33" /><path
         id="path168"
         style="fill:#295b45;fill-opacity:1;fill-rule:nonzero;stroke:none"
         d="m 5133.64,1425.75 c -6.24,-4.84 -17.89,-10.69 -22.93,-12.71 -16.2,31.64 -38.71,75.15 -51.62,97.61 9.59,8.12 34.45,20.83 39.95,22.64 7.55,-24.6 26.66,-85.82 34.6,-107.54" /><path
         id="path170"
         style="fill:#295b45;fill-opacity:1;fill-rule:nonzero;stroke:none"
         d="m 5242.98,1353.46 c 0.98,0.45 1.32,1.42 1.03,2.07 l -71.92,154.12 -19.29,-8.21 c -4.42,9.49 -8.68,19.46 -12.48,28.45 12.11,5.65 29.12,13.58 42.86,20 10.16,4.74 68.72,32.06 76.58,35.73 13.74,6.41 25.03,12.09 32.23,15.44 10.32,-18.7 20.8,-37.71 30.46,-56.71 -8.88,-5.74 -19.72,-12.39 -30.39,-18.56 l -16.99,22.75 c -2.04,2.63 -4.25,3.99 -9.14,2.5 -4.88,-1.48 -14.99,-4.59 -35.28,-14.06 -0.98,-0.46 -2.29,-1.08 -3.27,-1.53 l 28.69,-62.32 c 10.14,4.73 19.47,9.49 28.49,14.08 1.81,1.25 2.37,4.3 1.34,8.21 l -3.83,13.35 c 10.47,4.88 21.42,9.6 31.06,13.7 4.74,-10.14 10.05,-22.4 15.55,-34.18 5.5,-11.78 10.67,-23.71 14.65,-32.22 -9.19,-5.08 -19.84,-10.45 -30.31,-15.33 l -7.74,12.32 c -2.62,4.75 -5.17,5.95 -8.12,4.58 -9.31,-3.94 -18.63,-7.9 -28.12,-12.32 l 26.71,-58.07 c 2.9,-6.22 5.65,-6.14 20.37,0.74 13.42,6.26 21.13,11.06 25.26,14.17 2.82,2.51 3.69,4.91 3.32,9.13 l -2.73,30.6 c 11.89,3.55 24.4,6.61 34.81,9.07 5.26,-20.66 10.02,-41.94 14.77,-63.23 -16.36,-7.63 -61.99,-28.54 -107.47,-49.76 -15.05,-7.02 -31.59,-15.14 -44.67,-21.25 -4.28,9.16 -8.86,18.98 -12.65,27.97 l 16.22,8.77" /><path
         id="path172"
         style="fill:#295b45;fill-opacity:1;fill-rule:nonzero;stroke:none"
         d="m 5376.76,1516.76 c -5,8.79 -9.85,18.08 -14.32,25.93 14.99,10.17 57.01,44.41 58.89,45.48 0.63,0.35 0.81,0.05 0.98,-0.27 5.32,-5.69 10.33,-11.59 15.64,-17.28 l 1.74,0.58 c 19.77,36.13 25.42,42.26 39.86,50.46 13.51,7.67 33.16,3.05 45.51,-4.06 11.49,-6.35 18.27,-15.37 23.08,-23.85 10.17,-17.9 24.03,-44.49 35.14,-64.77 l 16.05,8.29 c 4.81,-8.47 10.17,-17.9 14.49,-26.24 -11.94,-6.77 -27.32,-15.51 -40.51,-23.01 -13.5,-7.67 -28.08,-16.36 -39.07,-22.59 -4.82,8.47 -10.16,17.89 -14.48,26.23 l 12.19,7.76 c 0.46,0.68 0.59,1.17 0.37,2.29 -6.82,12.74 -17.12,30.14 -24.08,42.39 -8.52,14.26 -12.79,21.79 -17.67,25.26 -6.52,4.19 -11.14,2.8 -15.86,0.13 -6.9,-3.93 -14.73,-15.01 -18.87,-25.26 10.03,-18.38 26.52,-48.89 36.68,-66.79 l 14.05,6.74 c 4.81,-8.49 9.98,-17.59 14.3,-25.93 -10.98,-6.24 -26.68,-15.16 -39.25,-22.3 -13.19,-7.48 -29.02,-16.9 -41.27,-23.86 -4.81,8.49 -10.16,17.91 -14.48,26.25 l 15.02,9.37 c 0.77,0.84 0.72,1.65 0.37,2.27 l -44.05,77.57 -20.45,-10.79" /><path
         id="path174"
         style="fill:#295b45;fill-opacity:1;fill-rule:nonzero;stroke:none"
         d="m 5705.55,1725.88 c 2.75,-13.82 6.72,-34.64 12.2,-64.86 4.68,-25.12 7.74,-45.24 12.53,-76.37 -8.49,-6.13 -27.68,-18.99 -43.27,-29.45 -29.4,21.14 -41.65,30.32 -68.83,50.77 -19.88,15.37 -31.32,24.64 -41.15,31.53 -0.4,0.6 -1.51,0.29 -2.61,0 l -12.08,-7.25 c -5.34,8.59 -11.58,17.89 -16.5,25.89 9.9,6.63 24.28,16.28 36.27,24.33 13.8,9.26 30.29,20.31 42.58,28.56 5.44,-8.1 11.47,-17.09 16.8,-25.68 l -12.79,-9.46 c 5.52,-4.99 15.35,-14.47 28.6,-26.45 13.66,-11.28 25.61,-21.96 34.54,-29.45 l 2.09,1.41 c -4.74,15.51 -7.58,27.51 -12.02,41.93 -4.14,12 -7.47,22.8 -12.92,37.41 -1.12,0.99 -1.31,1.3 -2.21,0.7 l -10.3,-6.04 c -5.34,8.6 -11.76,18.19 -16.49,25.89 10.19,6.83 23.39,15.69 34.18,22.92 8.4,5.64 18.29,12.27 26.08,17.5 5.23,-7.8 11.17,-17.3 16.3,-25.59 l -11,-8.24" /><path
         id="path176"
         style="fill:#295b45;fill-opacity:1;fill-rule:nonzero;stroke:none"
         d="m 5731.21,1738.09 c -5.87,7.77 -12.32,16.93 -17.9,24.94 14.7,12.88 56.41,54.73 58.73,56.47 0.57,0.44 0.78,0.14 1.22,-0.43 23.18,-31.36 56.09,-76.2 77.83,-105.04 l 16.28,11.38 c 6.09,-8.07 12.18,-16.14 18.05,-23.93 -10.96,-8.26 -27.39,-20.66 -39.79,-30 -12.12,-9.12 -27.18,-20.94 -39,-29.84 -5.87,7.77 -12.39,16.43 -17.75,24.15 l 14.84,12.09 c 0.65,0.93 0.5,1.73 0.07,2.31 l -53.48,70.94 z m 8.14,124.16 c 11.75,-15.57 6.89,-35.51 -7.54,-46.39 -12.39,-9.34 -33.13,-8.24 -44.21,6.47 -9.13,12.11 -7.37,31.97 8.49,43.94 16.73,12.6 34.14,8.09 43.26,-4.02" /><path
         id="path178"
         style="fill:#295b45;fill-opacity:1;fill-rule:nonzero;stroke:none"
         d="m 5889.76,1741.69 12.55,11.43 c 0.6,0.98 0.65,1.49 0.19,2.04 -18.75,22.44 -40.28,48.21 -58.34,69.82 l -17.05,-12.83 c -6.25,7.48 -12.69,15.75 -18.43,23.18 11.31,11.81 47.73,52.12 49.12,53.28 0.28,0.24 0.55,0.47 1.01,-0.08 10.79,-11.23 21.63,-21.93 32.41,-33.15 l 1.9,1.1 c -10.14,47.05 -6.79,55.98 7.07,67.56 6.92,5.78 15.8,10.38 22.95,13.07 10.89,-13.03 21.89,-41.96 20.55,-51.05 -2.95,-1.54 -13.11,-6.27 -19.76,-11.82 -2.77,-2.32 -5.04,-4.68 -5.96,-9.21 -1.51,-8.33 -1.5,-16.79 1.57,-31.16 2.23,-9.42 9.09,-18.76 15.3,-26.75 3.93,-4.71 9.26,-11.09 12.73,-15.24 l 23.42,18.16 c 6.24,-7.48 12.73,-15.24 18.43,-23.19 -11.64,-9.72 -28.82,-24.08 -41.85,-34.95 -12.18,-10.19 -27.46,-23.44 -39.1,-33.16 -6.26,7.48 -13.2,15.79 -18.71,22.95" /><path
         id="path180"
         style="fill:#295b45;fill-opacity:1;fill-rule:nonzero;stroke:none"
         d="m 6092.27,1925.1 c -1.48,11.53 -10.1,23.26 -26.74,40.82 -15.15,16 -24.95,22.13 -33.53,25.94 -8.1,2.77 -15.3,0.92 -20.02,-3.55 -4.72,-4.47 -7.18,-10.27 -6.12,-18.22 1.78,-10.26 8.59,-22.72 23.74,-38.7 18.38,-19.4 29.18,-26.08 38.07,-28.1 8.38,-2.02 14.05,-0.13 18.76,4.34 4.46,4.22 7.41,9.51 5.84,17.47 z m -42.94,-67.55 c -21.75,-1.2 -42.51,6 -61.63,26.18 -19.63,20.71 -28.08,48.02 -23.28,74.44 3.34,19.58 15.34,38.42 31.07,53.32 13.89,13.17 28.67,21.2 44.86,24.59 21.57,4.02 47.43,-2.81 69.53,-26.14 21.86,-23.07 27.91,-54.66 21.87,-79.27 -4.01,-16.24 -13.88,-32.06 -28.82,-46.22 -15.47,-14.66 -34.68,-25.89 -53.6,-26.9" /><path
         id="path182"
         style="fill:#295b45;fill-opacity:1;fill-rule:nonzero;stroke:none"
         d="m 6100.8,2056.04 c -7.47,6.82 -14.96,14.15 -21.62,20.25 11.11,14.3 40.5,59.83 41.96,61.43 0.49,0.53 0.76,0.29 1.03,0.04 6.8,-3.77 13.38,-7.82 20.19,-11.61 l 1.49,1.09 c 7.63,40.48 11.12,48.04 22.33,60.3 10.48,11.46 30.59,13.13 44.53,10.18 12.89,-2.49 22.12,-8.97 29.32,-15.54 15.19,-13.89 36.58,-34.9 53.4,-50.76 l 12.71,12.84 c 7.2,-6.57 15.2,-13.88 21.88,-20.48 -9.26,-10.13 -21.18,-23.2 -31.42,-34.39 -10.47,-11.46 -21.65,-24.24 -30.17,-33.55 -7.21,6.57 -15.2,13.87 -21.89,20.47 l 9.21,11.16 c 0.22,0.77 0.2,1.28 -0.35,2.28 -10.43,10.01 -25.6,23.38 -36,32.88 -12.5,10.94 -18.89,16.78 -24.6,18.57 -7.49,1.96 -11.46,-0.77 -15.12,-4.77 -5.35,-5.86 -9.37,-18.83 -10.15,-29.85 15.22,-14.39 40.31,-38.3 55.51,-52.19 l 11.28,10.73 c 7.18,-6.58 14.91,-13.64 21.6,-20.24 -8.53,-9.34 -20.7,-22.66 -30.45,-33.31 -10.22,-11.21 -22.38,-25.05 -31.88,-35.43 -7.19,6.57 -15.19,13.87 -21.88,20.47 l 11.4,13.56 c 0.47,1.04 0.18,1.79 -0.36,2.28 l -65.84,60.16 -16.11,-16.57" /><path
         id="path184"
         style="fill:#295b45;fill-opacity:1;fill-rule:nonzero;stroke:none"
         d="m 6252.82,2223.73 c -7.95,6.24 -15.96,13 -23.06,18.58 10.02,15.08 35.94,62.7 37.28,64.4 0.45,0.56 0.73,0.34 1.01,0.12 7.08,-3.27 13.94,-6.82 21.02,-10.08 l 1.39,1.19 c 4.61,40.94 7.54,48.74 17.8,61.81 9.59,12.21 29.52,15.37 43.64,13.47 13.05,-1.53 22.74,-7.31 30.41,-13.34 16.19,-12.71 39.09,-32.08 57.03,-46.64 l 11.73,13.75 c 7.67,-6.03 16.18,-12.71 23.34,-18.8 -8.47,-10.79 -19.41,-24.71 -28.78,-36.64 -9.6,-12.21 -19.8,-25.78 -27.6,-35.71 -7.66,6.03 -16.19,12.71 -23.35,18.8 l 8.36,11.8 c 0.16,0.8 0.1,1.3 -0.52,2.26 -11.15,9.21 -27.26,21.42 -38.35,30.11 -13.28,9.98 -20.09,15.34 -25.91,16.7 -7.63,1.4 -11.39,-1.62 -14.73,-5.89 -4.91,-6.24 -7.95,-19.47 -7.91,-30.51 16.25,-13.23 43.05,-35.22 59.24,-47.93 l 10.45,11.53 c 7.67,-6.02 15.91,-12.49 23.06,-18.58 -7.8,-9.93 -18.96,-24.13 -27.88,-35.49 -9.37,-11.92 -20.47,-26.63 -29.18,-37.7 -7.66,6.02 -16.18,12.71 -23.34,18.8 l 10.36,14.36 c 0.4,1.08 0.05,1.8 -0.52,2.25 l -70.14,55.11 -14.85,-17.73" /><path
         id="path186"
         style="fill:#295b45;fill-opacity:1;fill-rule:nonzero;stroke:none"
         d="m 6428.86,2458.7 c 3.51,-7.66 7.75,-13.62 19.87,-21.47 7.14,10.43 16.83,25.24 22.44,34.09 1.22,1.79 0.65,3.5 -1.45,4.92 -6.26,4.29 -14.83,8.39 -20.72,9.36 -7.2,0.99 -13.84,-1.04 -18.11,-7.3 -3.47,-5.07 -5.74,-10.95 -2.03,-19.6 z m -19.14,42.38 c 12.63,18.49 28.76,28.02 43.51,29.74 17.85,1.8 37.23,-3.13 56.3,-16.17 4.27,-3.36 7.92,-25.54 6.59,-28.12 -4.41,-8.36 -25.4,-39.08 -43.53,-65.6 10.25,-6.14 18.35,-6.43 24.88,-5.21 11.24,2.38 17.13,9.73 22.44,17.48 8.75,12.81 17.24,35.45 20.39,47.73 9.17,-3.2 20.34,-7.34 28.6,-11.25 -3.96,-23.08 -15.94,-53.39 -25.71,-67.71 -27.12,-39.64 -67.07,-56.5 -109.1,-27.77 -42.34,28.93 -54.94,82.17 -24.37,126.88" /><path
         id="path188"
         style="fill:#295b45;fill-opacity:1;fill-rule:nonzero;stroke:none"
         d="m 6497.51,2555.83 c -8.16,4.65 -17.39,10.34 -25.24,14.81 6.34,15.5 26.14,67.01 27.22,68.88 0.17,0.32 0.66,0.45 0.98,0.27 6.68,-2.14 13,-4.91 19.5,-7.37 l 1.03,1.08 c -0.49,38.53 0.35,45.11 7.69,57.98 9.49,16.63 32.96,19.89 38.65,20.38 l 0.89,1.57 c -0.17,41.27 1.16,47.99 7.96,59.92 7.7,13.49 21.49,20.18 36.49,22.43 9.95,1.4 23.58,-0.97 33.3,-6.51 22.29,-12.7 47.34,-27.81 67.24,-39.58 l 9.94,15.95 c 8.47,-4.82 17.7,-10.5 26.01,-15.65 -6.27,-10.98 -15.21,-26.67 -22.01,-38.6 -7.52,-13.17 -15.43,-27.8 -21.7,-38.78 -8.46,4.84 -18.2,10.38 -26.35,15.04 l 5.31,11.51 c 0.37,0.64 0.1,1.62 -0.54,1.97 -16.31,9.31 -38.28,21.84 -53.97,30.78 -5.64,3.22 -10.85,5.76 -16.31,6.39 -6.45,0.35 -10.66,-2.66 -13.89,-8.3 -3.57,-6.29 -5.18,-17.85 -4.99,-26.26 20.08,-11.45 50.04,-28.95 69.31,-40.35 l 7.78,12.2 c 8.47,-4.84 17.89,-10.21 26.18,-15.35 -6.26,-10.98 -15.03,-26.35 -22.36,-39.22 -6.61,-11.61 -13.64,-24.65 -18.82,-33.77 -8.8,5.01 -18.03,10.7 -26.19,15.35 l 5.5,11.84 c 0.22,1.12 -0.23,1.79 -0.86,2.14 -15.68,8.96 -37.97,21.66 -56.47,32.21 -5.34,3.04 -10.55,5.59 -15.38,5.85 -5.47,0.63 -9.05,-2.74 -11.74,-7.44 -3.57,-6.28 -5.4,-18.97 -4.14,-28.41 18.03,-10.69 49.86,-29.26 68.37,-39.81 l 7.79,12.19 c 8.46,-4.83 17.88,-10.2 26.36,-15.03 -6.8,-11.92 -15.57,-27.3 -23.09,-40.48 -6.79,-11.93 -15.56,-27.29 -22.18,-38.92 -8.47,4.84 -18.19,10.39 -26.18,15.35 l 8.32,16.05 c 0.54,0.95 0.08,1.61 -0.85,2.15 l -77.2,44.01 -11.36,-18.47" /><path
         id="path190"
         style="fill:#295b45;fill-opacity:1;fill-rule:nonzero;stroke:none"
         d="m 6680.27,2895.57 c 4.7,-6.99 9.86,-12.19 23.1,-17.98 5.35,11.45 12.52,27.63 16.64,37.27 0.92,1.97 0.07,3.57 -2.22,4.63 -6.88,3.22 -15.99,5.89 -21.97,5.89 -7.27,-0.18 -13.49,-3.26 -16.71,-10.13 -2.6,-5.56 -3.9,-11.73 1.16,-19.68 z m -25.73,38.76 c 9.49,20.28 23.88,32.3 38.16,36.39 17.33,4.65 37.25,2.91 58.19,-6.89 4.75,-2.63 11.94,-23.92 11.04,-26.7 -3,-8.97 -18.76,-42.67 -32.39,-71.79 11.1,-4.4 19.16,-3.38 25.41,-1.12 10.71,4.17 15.34,12.36 19.32,20.87 6.59,14.07 11.3,37.79 12.43,50.42 9.58,-1.69 21.27,-3.97 30.06,-6.49 -0.19,-23.44 -7.12,-55.29 -14.47,-70.99 -20.35,-43.52 -57.09,-66.62 -103.22,-45.03 -46.46,21.74 -67.49,72.25 -44.53,121.33" /><path
         id="path192"
         style="fill:#295b45;fill-opacity:1;fill-rule:nonzero;stroke:none"
         d="m 6730.07,3000.4 c -9.42,3.67 -19.05,7.81 -27.46,11.08 5.2,17.36 16.19,70.46 16.97,72.48 0.27,0.67 0.6,0.54 0.93,0.4 7.73,-1.07 15.32,-2.47 23.05,-3.54 l 0.99,1.54 c -7.48,40.53 -6.96,48.84 -0.93,64.32 5.64,14.48 23.8,23.29 37.86,25.57 12.94,2.34 23.9,-0.38 32.98,-3.92 19.18,-7.47 46.72,-19.36 68.14,-28.09 l 7.22,16.57 c 9.09,-3.54 19.18,-7.47 27.8,-11.22 -4.97,-12.78 -11.4,-29.28 -16.9,-43.41 -5.64,-14.48 -11.46,-30.42 -16.05,-42.2 -9.09,3.54 -19.18,7.47 -27.8,11.2 l 4.57,13.73 c -0.08,0.81 -0.28,1.27 -1.17,2.01 -13.32,5.57 -32.3,12.58 -45.43,17.7 -15.61,5.68 -23.69,8.82 -29.66,8.45 -7.7,-0.89 -10.42,-4.87 -12.38,-9.91 -2.89,-7.41 -1.96,-20.95 1.29,-31.52 19.39,-7.94 51.44,-21.2 70.62,-28.67 l 6.65,14.08 c 9.09,-3.54 18.85,-7.33 27.47,-11.08 -4.58,-11.78 -11.15,-28.61 -16.39,-42.08 -5.5,-14.13 -11.85,-31.42 -16.96,-44.55 -9.08,3.54 -19.19,7.47 -27.81,11.22 l 5.76,16.75 c 0.06,1.14 -0.49,1.74 -1.17,2 l -83.12,32.37 -9.07,-21.28" /><path
         id="path194"
         style="fill:#295b45;fill-opacity:1;fill-rule:nonzero;stroke:none"
         d="m 6930.02,3208.51 c -13.14,-7.93 -21.39,-6.45 -31.02,-3.38 -19.27,6.14 -36.7,12.08 -40.83,13.39 -7.23,2.3 -40.49,13.28 -44.97,14.7 -1.86,-5.84 -4.93,-15.48 -7.67,-24.07 -9.63,3.07 -19.85,6.7 -28.91,10.35 1.61,7.44 3.55,15.92 5.06,23.02 0.44,1.37 -0.27,2.73 -1.98,3.28 -8.63,3.88 -19.76,8.19 -27.68,11.85 -3.12,19.95 -2.23,56.05 -1.9,57.08 0.22,0.69 0.67,0.92 1.7,0.59 7.46,-2.75 38.66,-13.08 47.84,-16.38 5.59,17.55 11.73,36.81 16.54,53.09 9.98,-3.18 21.57,-7.25 31.56,-11.57 -4.61,-14.45 -11.74,-35.67 -16.79,-51.49 3.1,-0.99 9.87,-3.53 28.79,-9.57 14.11,-4.49 27.52,-8.76 43,-13.7 9.63,-3.06 18.12,3.33 20.52,10.9 4.4,13.75 6.15,27.6 6.8,39.14 9.83,-1.24 20.94,-3.26 30.1,-5.43 1.73,-26.69 -3.19,-52.79 -11.29,-78.25 -2.97,-9.29 -8.11,-17.13 -18.87,-23.55" /><path
         id="path196"
         style="fill:#58a3de;fill-opacity:1;fill-rule:nonzero;stroke:none"
         d="m 3118.63,586.23 c -23.86,-34.312 -49.02,-71.031 -70.87,-102.582 -1.16,-1.878 -1.48,-2.918 0.05,-3.41 l 71.98,-22.738 c -0.07,37.352 0.91,83.41 1.41,127.922 z M 2928.9,429.602 c 1.03,-0.321 2.9,0.218 3.91,1.597 57.66,73.391 141.4,180.93 198.74,255 9.57,-1.898 33.22,-9.371 70.76,-21.238 2.53,-95.789 4.32,-231.5 6.45,-323.223 l 25.57,-10.328 c -4.4,-13.879 -9.1,-28.801 -14.17,-43.031 -16.96,5.359 -42.15,13.32 -61.7,19.5 -26.73,8.43 -59.12,18.672 -82.77,26.152 4.55,14.387 9.26,29.301 14.32,43.539 l 25.68,-6.429 c 1.03,-0.321 2.39,0.39 2.35,2.078 -0.12,8.539 0.44,26.449 -0.2,35.14 0.13,2.219 -0.73,3.071 -2.79,3.711 l -95.43,29.02 c -6.15,-10.488 -14.82,-23.602 -20.28,-33.738 l 27.78,-10.481 c -4.38,-13.891 -9.09,-28.793 -14.15,-43.019 -20.56,6.5 -47.31,14.937 -72.5,22.898 -16.96,5.371 -34.96,11.039 -50.38,15.918 4.56,14.402 9.77,29.141 14.67,42.871 l 24.14,-5.937" /><path
         id="path198"
         style="fill:#58a3de;fill-opacity:1;fill-rule:nonzero;stroke:none"
         d="m 3347.27,572.059 c 3.03,14.8 6.8,30.531 10.24,44.691 21.14,-4.309 50.19,-10.262 75.03,-15.332 23.77,-4.867 53.36,-10.918 78.71,-16.098 -2.8,-13.742 -6.78,-30.539 -9.81,-45.332 l -33.5,5.75 c -1.06,0.231 -2.22,-0.09 -2.55,-1.679 L 3415.62,306 c -2.04,-10.039 -2.36,-11.621 21.93,-16.59 20.61,-4.219 34.78,-4.91 42.5,-4.84 4.97,0.09 8.25,2.719 11.56,8.098 l 29.61,50.633 c 17.31,-6.84 34.53,-14.211 50.15,-21.27 -13.89,-32.91 -27.89,-66.383 -43.37,-98.992 -25.78,5.813 -96.46,20.813 -169.9,35.832 -24.31,4.969 -50.82,9.84 -73.02,14.367 3.03,14.801 6.81,30.551 9.72,44.801 l 27.69,-4.551 c 1.16,0.301 2.33,0.621 2.64,2.203 l 51.41,248.739 -29.27,7.629" /><path
         id="path200"
         style="fill:#58a3de;fill-opacity:1;fill-rule:nonzero;stroke:none"
         d="m 3869.45,475.77 c -0.31,2.742 -0.66,4.941 -2.72,6.199 -6.48,6.511 -17.33,12.32 -31.3,13.531 -17.18,1.48 -38.03,-1.57 -57.73,-16.641 -26.07,-19.929 -45.24,-59.949 -49.46,-108.82 -3.97,-45.668 4.57,-78.34 21.06,-100.328 18.86,-25.992 41.93,-34.481 63.96,-36.391 9.13,-0.789 12.54,1.078 12.91,5.379 l 6.33,73.051 -41.81,4.711 c 1.31,15.039 3.38,32.711 5.18,47.16 23.1,-1.98 56.94,-4.922 85.95,-7.43 22.55,-1.961 50.49,-4.371 70.9,-6.152 -1.26,-14.5 -2.8,-32.23 -4.64,-47.219 l -22.65,0.879 c -1.66,-0.39 -2.25,-0.89 -2.34,-1.961 L 3912.46,197.66 c -19.21,-9.16 -57.55,-14.5 -105.88,-10.301 -60.71,5.262 -103.59,22.5 -132.16,48.782 -32.98,31.55 -52.89,76.57 -47.92,134.05 6.66,76.797 49.07,122.918 94.16,149.86 39.93,23.597 93.99,29.199 136.96,25.488 33.85,-2.937 64.49,-11.551 79.46,-19.879 -0.93,-35.629 -1.85,-71.269 -3.3,-106.859 -18.46,-0.571 -38.5,-1 -58,-0.93 l -6.33,57.899" /><path
         id="path202"
         style="fill:#58a3de;fill-opacity:1;fill-rule:nonzero;stroke:none"
         d="m 4219.31,620.039 c -31.17,-17.379 -70.25,-39.41 -104.08,-57.43 -7.37,9.422 -14.82,20.461 -21.13,29.93 27.75,22.109 64.42,50.512 93.77,72.699 10.77,-13.078 22.2,-29.886 31.44,-45.199 z m -168.34,-390.68 c 1.62,0.059 2.66,1.172 2.61,2.25 l -9.82,253.762 -31.29,-0.121 c -0.61,15.629 -0.7,31.801 -0.72,46.379 19.93,0.75 47.95,1.84 70.57,2.711 16.71,0.672 113.14,4.39 126.08,4.879 22.63,0.89 41.47,2.152 53.32,2.621 3.39,-31.711 6.79,-63.949 9.11,-95.692 -15.56,-2.769 -34.33,-5.66 -52.58,-7.968 l -10.23,41.14 c -1.27,4.801 -3.54,7.961 -11.12,8.75 -7.6,0.782 -23.3,2.321 -56.7,1.039 -1.62,-0.058 -3.77,-0.148 -5.39,-0.211 l 3.42,-102.386 c 16.71,0.648 32.31,1.789 47.38,2.906 3.2,0.672 5.75,4.531 6.6,10.512 l 2.45,20.601 c 17.24,0.668 35.03,0.821 50.67,0.879 0.65,-16.699 0.88,-36.648 1.64,-56.051 0.75,-19.398 0.97,-38.82 1.51,-52.828 -15.59,-1.66 -33.35,-2.89 -50.59,-3.582 l -3.53,21.461 c -0.86,8.059 -3.67,11.18 -8.52,11.008 -15.1,-0.059 -30.21,-0.098 -45.83,-0.699 l 3.15,-95.399 c 0.39,-10.23 4.24,-11.691 28.47,-10.761 22.09,0.863 35.5,3 42.97,4.91 5.33,1.82 7.92,4.621 9.85,10.633 l 13.96,43.707 c 18.42,-2 37.42,-5.039 53.17,-7.661 -4.72,-31.48 -10.49,-63.527 -16.26,-95.589 -26.94,-1.047 -101.85,-3.411 -176.75,-6.309 -24.77,-0.949 -52.23,-2.559 -73.78,-3.398 -0.59,15.097 -1.21,31.25 -1.24,45.82 l 27.42,2.687" /><path
         id="path204"
         style="fill:#58a3de;fill-opacity:1;fill-rule:nonzero;stroke:none"
         d="m 4468.93,395.629 c 2.22,-0.168 5.41,0.359 12.86,1.57 35.66,5.871 53.36,34.473 47.58,69.582 -6.38,38.86 -35.05,63.641 -63.27,59 -9.04,-1.48 -13.74,-2.793 -16.75,-4.383 z m -136.4,104.91 c -2.53,15.43 -4.98,30.34 -6.9,45.332 36.1,6.481 81.24,14.449 122.75,21.277 30.34,4.973 46.83,7.692 79.44,5.403 47.96,-2.481 84.6,-39.09 90.2,-73.141 7.43,-45.238 -16.06,-81.89 -50.77,-103.449 l 0.53,-3.191 c 25.25,-7.329 43.01,-35.551 75.11,-81.11 8.03,-12.332 12.63,-17.058 19.1,-16.531 l 26.07,1.019 c 2.35,-14.378 4.29,-29.359 6.73,-44.257 -9.58,-1.582 -28.65,-5.262 -38.75,-6.922 -11.72,-1.938 -56.86,-9.899 -66.97,-11.559 -17.76,21.66 -53.46,79.18 -68.23,102.461 -9.62,15.348 -20.25,20.16 -32.5,18.149 -6.38,-1.051 -10.54,-2.282 -12.05,-3.09 l 13.56,-85.762 29,3.141 c 1.91,-14.989 4.28,-29.368 6.73,-44.25 -20.76,-3.418 -50.02,-8.239 -76.1,-12.52 -22.36,-3.68 -47.35,-7.789 -67.58,-11.117 -1.92,14.988 -4.28,29.348 -6.74,44.269 l 25.82,5.879 c 1.06,0.168 1.42,1.321 1.34,1.86 l -40.87,251.781 -28.92,-3.672" /><path
         id="path206"
         style="fill:#58a3de;fill-opacity:1;fill-rule:nonzero;stroke:none"
         d="m 4676.33,564.582 c -4.02,14.559 -8.34,30.148 -11.71,44.316 21.83,6.063 54.06,14.981 78.46,21.75 25.46,7.051 55.09,15.27 76.91,21.313 3.73,-13.512 7.84,-30.289 11.72,-44.313 L 4799.4,597.02 c -1.04,-0.29 -0.89,-0.809 -0.31,-2.891 l 65.83,-243.621 35.39,7.582 c 3.9,-14.039 8.22,-29.641 11.87,-44.852 -21.31,-5.898 -52.11,-13.859 -78.08,-21.09 -23.91,-6.597 -52.87,-15.179 -76.77,-21.82 -4.02,14.563 -7.98,30.801 -12,45.352 l 29.84,9.398 c 1.04,0.281 1.8,1.621 1.52,2.66 l -67.7,244.211 -32.66,-7.367" /><path
         id="path208"
         style="fill:#58a3de;fill-opacity:1;fill-rule:nonzero;stroke:none"
         d="m 4996.96,390.109 c 1.52,0.59 2.13,1.973 1.75,2.993 l -91.17,237.019 -29.58,-10.211 c -5.61,14.59 -10.91,29.879 -15.64,43.668 18.62,7.152 44.79,17.211 65.94,25.352 15.6,6.011 105.67,40.64 117.76,45.289 21.12,8.14 38.55,15.41 49.62,19.672 13.43,-28.911 27.06,-58.352 39.49,-87.641 -13.83,-7.621 -30.66,-16.43 -47.2,-24.512 l -22.94,35.653 c -2.76,4.148 -5.93,6.39 -13.37,4.691 -7.43,-1.711 -22.8,-5.301 -54,-17.301 -1.51,-0.582 -3.53,-1.363 -5.02,-1.941 l 36.26,-95.809 c 15.6,6 30.01,12.11 43.9,18.039 2.83,1.649 3.99,6.16 2.87,12.078 l -4.34,20.274 c 16.12,6.199 32.91,12.078 47.7,17.199 6,-15.609 12.65,-34.422 19.62,-52.539 6.98,-18.113 13.43,-36.434 18.47,-49.504 -14.21,-6.637 -30.62,-13.508 -46.72,-19.719 l -10.28,19.172 c -3.39,7.36 -7.08,9.399 -11.59,7.668 -14.3,-4.918 -28.57,-9.84 -43.17,-15.449 l 33.75,-89.27 c 3.67,-9.558 7.79,-9.718 30.43,-1.011 20.63,7.941 32.62,14.301 39.09,18.511 4.46,3.438 6.01,6.93 5.89,13.239 l -0.89,45.871 c 18.08,4.051 37.04,7.308 52.81,9.91 5.67,-31.32 10.56,-63.52 15.43,-95.738 -25.15,-9.66 -95.3,-36.071 -165.26,-62.981 -23.14,-8.91 -48.61,-19.281 -68.75,-27.019 -5.42,14.097 -11.23,29.199 -15.94,42.968 l 25.08,11.379" /><path
         id="path210"
         style="fill:#215b45;fill-opacity:1;fill-rule:nonzero;stroke:none"
         d="m 5030.52,4159.57 c 87.08,27.89 149.02,100.36 149.82,168.9 -39.44,2.8 -79.19,5.62 -130.32,9.26 -6.57,-60.04 -12.73,-116.29 -19.5,-178.16 z m -1275.03,-40 c 9.85,3.21 19.7,6.41 29.55,9.62 -7.01,19.25 -12.34,39.32 -21.31,57.61 -38.53,78.48 -78.33,156.33 -116.9,234.79 -2.6,5.29 2.02,13.72 1.71,20.61 -1.13,24.93 6.97,60.3 -6.28,72.84 -45.32,42.89 -30.23,74.2 7.69,106.97 32.83,28.36 48.28,61.59 35.92,105.75 -15.75,56.27 -29.76,113.02 -48.04,183.06 5.9,-2.18 -9.71,-0.53 -19.5,7.9 -50.03,43.07 -100.23,48.09 -163.23,23.21 -43.42,-17.15 -95.51,-12.75 -143.81,-17.03 -57.93,-5.13 -115.95,-9.24 -173.93,-13.8 -2.35,-8.1 -4.71,-16.2 -7.06,-24.3 119.71,-113.43 252.34,-216.35 355.53,-343.22 104.98,-129.06 180.97,-281.7 269.66,-424.01 z m -35.2,327.37 c -10.61,-95.28 39.13,-150.21 69.77,-213.34 21.73,-44.76 46.29,-99.92 38.3,-144.87 -16.64,-93.7 4.31,-174.1 43.14,-255.63 28.58,-60.03 52.93,-69.95 106.9,-28.31 22.98,17.74 46.54,44.35 53.56,71.19 15.59,59.59 15.79,123.26 32.01,182.61 13.35,48.84 37.23,95.91 63.24,139.73 14.7,24.78 62.5,42.48 61.45,61.5 -2.41,43.53 -6,99.97 -66.71,111.89 -131.74,25.86 -263.89,49.56 -401.66,75.23 z m -347.56,-203.28 c 9.13,-0.36 18.25,-0.72 27.37,-1.08 -3,-52.59 -11.18,-105.57 -7.32,-157.65 2.98,-40.3 8.89,-93.44 35,-116.16 50.5,-43.94 114.75,-73.44 176.3,-102.59 21.71,-10.29 66.99,-12.17 75.3,0 13.57,19.88 15.56,58.89 5.15,82.05 -58.32,129.67 -114.1,261.52 -185.74,383.85 -71.26,121.68 -156.54,235.84 -243.01,347.62 -43.09,55.7 -107.84,94.28 -153.43,148.49 -70.3,83.58 -119.57,103.48 -224.37,71.39 -28.95,-8.86 -58.06,-17.19 -96.13,-28.43 21.59,-54.82 37.53,-107.35 62.16,-155.43 64.84,-126.63 108.68,-269.32 248.71,-341.89 9.5,-4.92 13.99,-18.85 21.9,-27.61 71.03,-78.59 100.45,-175.56 127.61,-275.1 23.07,-84.55 61.07,-111.74 117.96,-108.89 4.22,94.6 8.38,188.01 12.54,281.43 z m 669.8,-1487.77 c 23.13,16.74 39.84,22.32 43.72,32.7 27.51,73.55 60.17,146.41 76.51,222.64 36.41,169.78 99.2,324.17 213.88,457.42 62.78,72.94 111.12,158.45 175.06,230.2 94.36,105.89 184.1,223.34 299.18,301.39 132.23,89.68 138.82,211.22 149.19,341.13 1.45,18.16 -6.79,44.02 -19.98,55.16 -44.32,37.45 -176.56,31.88 -232.91,-5.35 -65.75,-43.43 -84.48,-99.25 -74.59,-178.47 3.76,-30.13 -7.24,-74.88 -28.43,-91.88 -22.61,-18.13 -67.35,-20.37 -98.49,-12.97 -33.18,7.87 -60.2,38.61 -92.68,53.19 -53.41,23.98 -107.76,53.13 -164.24,60.34 -34.48,4.4 -89.74,-18.26 -107.09,-46.38 -27.75,-45 -32.35,-104.5 -45.65,-158.13 -23.21,-93.54 -33.92,-192.26 -71.17,-279.74 -50.82,-119.38 -162.58,-211.25 -163.64,-354.2 -0.51,-68.94 4.63,-137.95 3.12,-206.84 -3.43,-155.53 99.48,-271.59 138.21,-420.21 z m -1164.35,1068.7 c 33.31,0 66.63,0 119.43,0 -69.95,97.05 -131.62,182.61 -199.38,276.63 28.33,0 45.12,4.96 50.5,-0.78 44.98,-47.95 107.05,-91.25 126.87,-148.74 29.52,-85.59 75.7,-131.18 158.34,-162.36 127.64,-48.17 254.43,-102.25 373.13,-168.9 56.63,-31.79 101.02,-43.28 158.69,-19.86 23.78,9.66 50.24,12.7 75.7,18.8 24.97,78.38 -27.44,113.55 -82.26,135.74 -113.37,45.87 -231.92,79.1 -344.71,126.23 -84.94,35.49 -131.47,110.63 -147.56,199.51 -27.08,149.66 -116.87,252.65 -227.52,349.62 -48.48,42.49 -70.38,116.69 -100.54,178.36 -34.56,70.68 -66.63,142.72 -96.41,215.55 -19.37,47.39 -51.23,54.51 -91.33,34.28 -86.8,-43.78 -170.28,-94.74 -259.15,-133.54 -42.48,-18.55 -93.97,-19.83 -141.71,-22.06 -49.89,-2.32 -100.26,6.66 -150.25,5.14 -59.85,-1.83 -115.94,22.58 -120.65,75.99 -4.44,50.45 40.69,94.75 100.33,105.07 42.3,7.31 85.21,21.17 127.13,18.9 179.26,-9.72 247.82,122.11 321.91,246.55 7.74,12.99 5.89,40.19 -2.88,53.02 -34.47,50.46 -16.41,96.36 17.62,130.26 59.71,59.47 121.08,122.22 193.46,162.62 71.69,40.01 95.18,94.49 101.17,165.97 11.38,135.85 52.63,166.64 180.17,121.73 88.84,-31.28 166.81,-39.55 239.01,37.9 30.94,33.2 75.24,54.6 115.1,78.66 65.15,39.34 160.15,1.61 198.69,-71.31 81.88,-154.92 203.3,-265.83 360.7,-347.55 109.63,-56.93 230.83,-115.86 268.33,-253.93 22.82,-84.03 -19,-141.09 -105.62,-148.56 -61.71,-5.31 -123.61,-8.52 -185.25,-14.57 -19.84,-1.95 -39.09,-9.96 -77.97,-20.4 90.09,-73.17 169.56,-127.85 266.33,-151.65 8.11,-1.99 36.57,31.39 35.18,46.43 -5.47,58.78 24.38,88.66 72.06,110.42 70.13,32.02 118.53,132.33 100.32,205.77 -4.02,16.18 -9.8,32.26 -11.2,48.69 -5.99,69.94 21.38,88.33 84.18,61.34 20.62,-8.87 45.34,-8.18 68.19,-11.86 -13.83,23.88 -22.25,54.75 -42.46,70.37 -73.88,57.1 -151.52,109.37 -228.28,162.7 -9.18,6.38 -21.37,10.16 -32.61,11.57 -85.56,10.76 -131.56,68.74 -177.1,134.93 -39,56.67 -89.84,105.9 -139.42,154.36 -37.86,37 -57.52,153.93 -16.89,184.47 18.69,14.04 86.75,1.46 88.28,-7 11.07,-61.49 63.17,-75.12 104.23,-84.89 45.94,-10.94 65.75,-35.09 87.28,-71.18 41.06,-68.84 103.38,-111.97 178.52,-142.57 93.47,-38.07 191.78,-74.09 247.11,-168.26 17.13,-29.17 35.93,-64.35 34.72,-96.05 -4.12,-107.66 36.25,-190.52 108.53,-268.64 43.37,-46.89 62.75,-115.09 99.45,-169.29 38.08,-56.25 79.03,-112.54 128.28,-158.6 34.3,-32.08 76.39,-26.04 89.76,32.46 11.64,50.92 33.17,90.88 91,106.23 45.51,12.08 42.24,44.09 15.24,76.96 -50.84,61.88 -100.99,124.34 -151.05,186.86 -5.65,7.05 -8.89,16.04 -20.37,37.38 81.88,-10.92 120.09,39.43 169.74,82.61 33.87,29.45 103.27,24.51 156.18,22.03 17.92,-0.84 39.39,-39.12 49.23,-64.22 8.14,-20.79 1.22,-47.35 1.59,-71.35 0.82,-54.02 -17.52,-117.5 82.59,-125.54 -29.11,-33.09 -46.71,-53.09 -64.3,-73.09 44.63,-55.46 89.22,-112.77 135.95,-168.28 30.82,-36.6 62.23,-70.33 120.44,-60.79 22.05,3.61 54.27,-9.97 70.9,-26.63 48.44,-48.55 94.55,-34.69 142.6,-4.61 78.91,49.38 132.56,52.44 201.41,-2.45 63.39,-50.55 122.51,-40.52 184.19,-3.04 22.41,13.62 41.86,32.59 65.11,44.22 84.71,42.35 125.13,7.01 144.51,-82.63 38.07,-176.07 -48.95,-322.12 -96.83,-476.59 -33.65,-108.58 -115.53,-135.43 -260.24,-102.99 -97.12,21.77 -188.56,25.42 -284.4,-16.06 -43.13,-18.66 -102.65,-6.93 -153.25,0.74 -98.43,14.91 -195.6,38.1 -293.88,54.24 -16.36,2.68 -40.02,-8.44 -53.04,-20.82 -112.63,-107.15 -228.95,-211.18 -333.37,-325.97 -84.57,-92.98 -179.47,-180.82 -227.25,-302.33 -3.77,-9.57 -5.61,-28.37 -1.28,-30.93 9.92,-5.88 26.8,-9.63 36.33,-4.98 63.91,31.17 124.94,68.81 190.31,96.22 47.13,19.76 99.53,26.93 149.57,39.71 2.08,-7.22 4.15,-14.44 6.23,-21.65 -3.22,-5.84 -5.02,-14.95 -9.85,-17.03 -125.56,-54.07 -252.07,-106 -376.74,-162.03 -26.7,-12 -49.86,-35.87 -69.65,-58.61 -89.31,-102.65 -171.09,-209.55 -207.92,-344.95 -10.92,-40.13 -40.09,-74.96 -57.71,-113.66 -37.61,-82.6 -55.54,-168.27 -67.98,-259.82 -18.37,-135.32 -69.26,-266.15 -105.19,-399.2 -12.83,-47.52 -29.99,-95.61 -31.95,-143.97 -4.47,-110.18 -0.11,-220.7 -0.59,-331.08 -0.33,-77.29 -15.23,-85.81 -109.82,-88.79 -61.35,-1.94 -99.74,4.48 -95.43,83.12 6.23,113.6 0.61,227.85 0.33,341.82 -0.04,14.36 -2.21,30.36 3.12,42.83 70.15,164.22 -14.54,303.24 -77.26,442.24 -64.99,144.04 -104.96,291.58 -98.82,448.92 4.17,107.06 18.3,213.76 28.82,320.54 7.67,77.81 -6.51,78.14 -82.72,68.41 -68.5,-8.75 -142.73,-37.45 -212.35,35.32 -46.86,48.97 -129.83,63.88 -197.28,92.53 -83.41,35.43 -166.68,71.44 -251.56,103.03 -49.11,18.27 -101.27,28.33 -152.05,42.08 0.4,6.19 0.79,12.38 1.19,18.56" /></g></g></svg>